<svg width="12" height="12" viewBox="0 0 12 12" fill="none" xmlns="http://www.w3.org/2000/svg">
<path d="M7.1228 4.10956C7.29852 3.63466 7.9702 3.63466 8.14593 4.10955L8.72593 5.67697C8.78117 5.82627 8.89889 5.94399 9.0482 5.99924L10.6156 6.57923C11.0905 6.75496 11.0905 7.42664 10.6156 7.60237L9.0482 8.18236C8.89889 8.23761 8.78117 8.35533 8.72593 8.50463L8.14593 10.072C7.97021 10.5469 7.29852 10.5469 7.1228 10.072L6.5428 8.50463C6.48755 8.35533 6.36984 8.23761 6.22053 8.18236L4.65312 7.60237C4.17823 7.42664 4.17823 6.75496 4.65312 6.57923L6.22053 5.99924C6.36984 5.94399 6.48755 5.82627 6.5428 5.67697L7.1228 4.10956Z" fill="#24A1DD"/>
<path d="M2.47155 1.23662C2.55941 0.999177 2.89525 0.999177 2.98312 1.23662L3.42044 2.41847C3.44806 2.49312 3.50692 2.55198 3.58158 2.57961L4.76342 3.01693C5.00087 3.10479 5.00087 3.44063 4.76342 3.5285L3.58158 3.96582C3.50692 3.99344 3.44806 4.0523 3.42044 4.12696L2.98312 5.3088C2.89525 5.54625 2.55941 5.54625 2.47155 5.3088L2.03423 4.12696C2.0066 4.0523 1.94774 3.99344 1.87309 3.96582L0.691244 3.5285C0.453797 3.44063 0.453798 3.10479 0.691244 3.01693L1.87309 2.57961C1.94774 2.55198 2.0066 2.49312 2.03423 2.41847L2.47155 1.23662Z" fill="#24A1DD"/>
</svg>
