<svg width="756" height="978" viewBox="0 0 756 978" fill="none" xmlns="http://www.w3.org/2000/svg">
<g clip-path="url(#clip0_172_663)">
<rect width="756" height="978" fill="#101213"/>
<g filter="url(#filter0_f_172_663)">
<circle cx="111" cy="36" r="365" fill="#26A3DD"/>
</g>
<g opacity="0.3">
<path opacity="0.0391667" d="M493.888 -124.242C475.504 -268.72 313.685 -347.293 235.074 -368.519C-77.1515 -269.821 60.9792 -398.987 114.846 129.586C168.713 658.16 764.914 -188.347 593.547 -19.6935C422.18 148.96 144.732 -92.3859 282.299 -195.773C419.867 -299.16 516.867 56.3549 493.888 -124.242Z" fill="#26A3DD" stroke="url(#paint0_linear_172_663)" stroke-opacity="0.15" stroke-width="3.34565"/>
<path opacity="0.0783333" d="M464.681 -100.569C459.589 -246.421 305.987 -338.403 229.823 -366.162C-89.3688 -293.612 59.6389 -411.116 64.9653 121.368C70.2918 653.852 739.788 -142 554.16 12.1759C368.532 166.352 114.893 -97.8672 260.991 -189.668C407.089 -281.468 471.046 81.7456 464.681 -100.569Z" fill="#26A3DD" stroke="url(#paint1_linear_172_663)" stroke-opacity="0.15" stroke-width="3.34565"/>
<path opacity="0.1175" d="M433.7 -79.6617C441.938 -225.777 297.722 -330.468 224.584 -364.549C-99.1442 -318.699 59.6063 -423.646 16.3517 108.695C-26.9028 641.036 710.793 -98.1032 512.317 40.4216C313.842 178.946 85.9424 -106.135 239.459 -185.649C392.975 -265.164 423.402 102.983 433.7 -79.6617Z" fill="#26A3DD" stroke="url(#paint2_linear_172_663)" stroke-opacity="0.15" stroke-width="3.34565"/>
<path opacity="0.156667" d="M401.206 -61.6781C422.712 -206.946 288.978 -323.548 219.424 -363.691C-106.377 -344.891 60.908 -436.483 -30.5983 91.6648C-122.105 619.812 678.177 -56.99 468.364 64.8296C258.551 186.649 58.1253 -117.124 217.892 -183.748C377.658 -250.373 374.323 119.907 401.206 -61.6781Z" fill="#26A3DD" stroke="url(#paint3_linear_172_663)" stroke-opacity="0.15" stroke-width="3.34565"/>
<path opacity="0.195833" d="M367.472 -46.7324C402.081 -190.047 279.849 -317.674 214.407 -363.573C-110.987 -371.965 63.5596 -449.505 -75.5019 70.4295C-214.563 590.364 642.213 -18.9503 422.659 85.2368C203.105 189.424 31.6793 -130.73 196.48 -183.957C361.281 -237.183 324.209 132.41 367.472 -46.7324Z" fill="#26A3DD" stroke="url(#paint4_linear_172_663)" stroke-opacity="0.15" stroke-width="3.34565"/>
<path opacity="0.235" d="M332.784 -34.9199C380.235 -175.19 270.434 -312.87 209.603 -364.177C-112.909 -399.697 67.5712 -462.594 -117.987 45.1695C-303.546 552.933 603.204 15.7446 375.581 101.506C147.958 187.268 6.83592 -146.83 175.416 -186.253C343.997 -225.677 273.471 140.417 332.784 -34.9199Z" fill="#26A3DD" stroke="url(#paint5_linear_172_663)" stroke-opacity="0.15" stroke-width="3.34565"/>
<path opacity="0.274167" d="M297.438 -26.3289C357.368 -162.487 260.834 -309.173 205.076 -365.497C-112.098 -427.875 72.9417 -475.651 -157.702 16.0784C-388.345 507.807 561.478 46.8325 327.518 113.516C93.5573 180.2 -16.1863 -165.299 154.891 -190.62C325.969 -215.941 222.525 143.869 297.438 -26.3289Z" fill="#26A3DD" stroke="url(#paint6_linear_172_663)" stroke-opacity="0.15" stroke-width="3.34565"/>
<path opacity="0.313333" d="M261.728 -21.0004C333.681 -152.01 251.149 -306.586 200.889 -367.497C-108.533 -456.258 79.6576 -488.55 -194.315 -16.598C-468.288 455.354 517.38 74.1011 278.863 121.199C40.3455 168.298 -37.1848 -185.974 135.088 -196.999C307.36 -208.024 171.786 142.762 261.728 -21.0004Z" fill="#26A3DD" stroke="url(#paint7_linear_172_663)" stroke-opacity="0.15" stroke-width="3.34565"/>
<path opacity="0.3525" d="M225.954 -18.9648C309.383 -143.83 241.481 -305.118 197.101 -370.154C-102.215 -484.623 87.6951 -501.184 -227.522 -52.6007C-542.739 395.982 471.272 97.3531 230.013 124.507C-11.2455 151.662 -55.9725 -208.685 116.184 -205.331C288.34 -201.977 121.668 137.116 225.954 -18.9648Z" fill="#26A3DD" stroke="url(#paint8_linear_172_663)" stroke-opacity="0.15" stroke-width="3.34565"/>
<path opacity="0.391667" d="M190.419 -20.2235C284.689 -137.993 231.933 -304.766 193.772 -373.432C-93.1599 -512.738 97.0236 -513.442 -257.039 -91.6418C-611.101 330.158 423.535 116.425 181.371 123.429C-60.7927 130.433 -72.3759 -233.247 98.354 -215.539C269.084 -197.831 72.5817 126.988 190.419 -20.2235Z" fill="#26A3DD" stroke="url(#paint9_linear_172_663)" stroke-opacity="0.15" stroke-width="3.34565"/>
<path opacity="0.430833" d="M155.42 -24.7579C259.814 -134.535 222.606 -305.525 190.953 -377.298C-81.4106 -540.38 107.599 -525.222 -282.614 -133.415C-672.827 258.392 374.561 131.182 133.335 117.982C-107.891 104.782 -86.2428 -259.464 81.7614 -227.536C249.766 -195.609 24.9289 112.464 155.42 -24.7579Z" fill="#26A3DD" stroke="url(#paint10_linear_172_663)" stroke-opacity="0.15" stroke-width="3.34565"/>
<path opacity="0.47" d="M121.253 -32.5085C234.975 -133.459 213.599 -307.363 188.695 -381.696C-67.0276 -567.313 119.37 -536.409 -304.024 -177.577C-727.418 181.254 324.75 141.536 86.2976 108.232C-152.155 74.9284 -97.4392 -287.11 66.5606 -241.207C230.56 -195.303 -20.8997 93.6794 121.253 -32.5085Z" fill="#26A3DD" stroke="url(#paint11_linear_172_663)" stroke-opacity="0.15" stroke-width="3.34565"/>
<path opacity="0.509167" d="M88.2042 -43.4117C210.39 -134.767 205.007 -310.262 187.043 -386.591C-50.093 -593.33 132.274 -546.915 -321.079 -223.789C-774.431 99.3376 274.509 147.412 40.6451 94.2586C-193.219 41.1049 -105.853 -315.972 52.8947 -256.441C211.642 -196.911 -64.5277 70.7818 88.2042 -43.4117Z" fill="#26A3DD" stroke="url(#paint12_linear_172_663)" stroke-opacity="0.15" stroke-width="3.34565"/>
<path opacity="0.548333" d="M56.5559 -57.3722C186.275 -138.436 196.927 -314.187 186.038 -391.93C-30.7055 -618.218 146.243 -556.645 -333.618 -271.684C-813.479 13.277 224.251 148.779 -3.24507 76.1802C-230.741 3.58098 -111.389 -345.816 40.898 -273.112C193.185 -200.407 -105.593 43.9579 56.5559 -57.3722Z" fill="#26A3DD" stroke="url(#paint13_linear_172_663)" stroke-opacity="0.15" stroke-width="3.34565"/>
<path opacity="0.5875" d="M26.5753 -74.2607C162.841 -144.417 189.447 -319.086 185.716 -397.651C-8.986 -641.767 161.197 -565.504 -341.521 -320.877C-844.238 -76.2494 174.384 145.649 -45.0123 54.1572C-264.409 -37.335 -113.979 -376.393 30.6882 -291.069C175.355 -205.744 -143.756 13.4347 26.5753 -74.2607Z" fill="#26A3DD" stroke="url(#paint14_linear_172_663)" stroke-opacity="0.15" stroke-width="3.34565"/>
<path opacity="0.626667" d="M-1.47592 -93.9421C140.298 -152.657 182.656 -324.914 186.113 -403.704C14.9334 -663.789 177.056 -573.417 -344.692 -370.985C-866.44 -168.553 125.322 138.053 -84.3053 28.364C-293.933 -81.3248 -113.57 -407.464 22.3764 -310.168C158.323 -212.872 -178.694 -20.5488 -1.47592 -93.9421Z" fill="#26A3DD" stroke="url(#paint15_linear_172_663)" stroke-opacity="0.15" stroke-width="3.34565"/>
<path opacity="0.665833" d="M-27.3639 -116.25C118.841 -163.076 176.627 -331.611 187.245 -410.026C40.8912 -684.1 193.719 -580.307 -343.088 -421.612C-879.895 -262.916 77.4577 126.064 -120.805 -0.986493C-319.067 -128.037 -110.145 -438.775 16.0464 -330.248C142.238 -221.722 -210.12 -57.7173 -27.3639 -116.25Z" fill="#26A3DD" stroke="url(#paint16_linear_172_663)" stroke-opacity="0.15" stroke-width="3.34565"/>
<path opacity="0.705" d="M-50.8592 -141.003C98.6628 -175.584 171.438 -339.115 189.136 -416.557C68.7222 -702.535 211.093 -586.111 -336.689 -472.359C-884.47 -358.608 31.1885 109.786 -154.2 -33.6596C-339.589 -177.105 -103.697 -470.077 11.7786 -351.145C127.254 -232.214 -237.762 -97.7766 -50.8592 -141.003Z" fill="#26A3DD" stroke="url(#paint17_linear_172_663)" stroke-opacity="0.15" stroke-width="3.34565"/>
<path opacity="0.744167" d="M-71.7539 -167.993C79.9476 -190.066 167.158 -347.347 191.801 -423.228C98.2439 -718.934 229.073 -590.764 -325.513 -522.822C-880.1 -454.88 -13.1046 89.3625 -184.209 -69.3862C-355.313 -228.135 -94.2461 -501.111 9.63485 -372.68C113.516 -244.249 -261.381 -140.402 -71.7539 -167.993Z" fill="#26A3DD" stroke="url(#paint18_linear_172_663)" stroke-opacity="0.15" stroke-width="3.34565"/>
<path opacity="0.783333" d="M-89.8612 -197.009C62.8653 -206.406 163.848 -356.241 195.248 -429.983C129.259 -733.165 247.552 -594.226 -309.619 -572.611C-866.79 -550.996 -55.0565 64.954 -210.574 -107.89C-366.092 -280.734 -81.8369 -531.636 9.65893 -394.683C101.155 -257.73 -280.769 -185.263 -89.8612 -197.009Z" fill="#26A3DD" stroke="url(#paint19_linear_172_663)" stroke-opacity="0.15" stroke-width="3.34565"/>
<path opacity="0.8225" d="M-105.015 -227.81C47.5739 -224.46 161.559 -365.707 199.478 -436.75C161.56 -745.101 266.415 -596.449 -289.1 -621.325C-844.615 -646.202 -94.3203 36.7671 -233.068 -148.856C-371.815 -334.479 -66.5355 -561.399 11.8789 -416.966C90.2933 -272.534 -295.752 -231.998 -105.015 -227.81Z" fill="#26A3DD" stroke="url(#paint20_linear_172_663)" stroke-opacity="0.15" stroke-width="3.34565"/>
<path opacity="0.861667" d="M-117.073 -260.151C34.2174 -244.079 160.338 -375.664 204.487 -443.466C194.928 -754.64 285.548 -597.407 -264.083 -668.585C-813.714 -739.763 -130.569 5.02672 -251.49 -191.963C-372.411 -388.954 -48.4307 -590.163 16.3055 -439.35C81.0417 -288.537 -306.186 -280.242 -117.073 -260.151Z" fill="#26A3DD" stroke="url(#paint21_linear_172_663)" stroke-opacity="0.15" stroke-width="3.34565"/>
<path opacity="0.900833" d="M-125.913 -293.769C22.9277 -265.097 160.224 -386.019 210.267 -450.064C229.14 -761.693 304.836 -597.075 -234.729 -714.014C-774.293 -830.952 -163.497 -30.0088 -265.671 -236.867C-367.846 -443.725 -27.6301 -617.693 22.9352 -461.647C73.5005 -305.601 -311.963 -329.609 -125.913 -293.769Z" fill="#26A3DD" stroke="url(#paint22_linear_172_663)" stroke-opacity="0.15" stroke-width="3.34565"/>
<path opacity="0.94" d="M-131.44 -328.398C13.8181 -287.344 161.245 -396.682 216.802 -456.484C263.962 -766.195 324.157 -595.446 -201.234 -757.254C-726.625 -919.063 -192.826 -68.0624 -275.476 -283.214C-358.126 -498.365 -4.26461 -643.768 31.7449 -483.677C67.7545 -323.586 -313.012 -379.715 -131.44 -328.398Z" fill="#26A3DD" stroke="url(#paint23_linear_172_663)" stroke-opacity="0.15" stroke-width="3.34565"/>
</g>
</g>
<defs>
<filter id="filter0_f_172_663" x="-834" y="-909" width="1890" height="1890" filterUnits="userSpaceOnUse" color-interpolation-filters="sRGB">
<feFlood flood-opacity="0" result="BackgroundImageFix"/>
<feBlend mode="normal" in="SourceGraphic" in2="BackgroundImageFix" result="shape"/>
<feGaussianBlur stdDeviation="290" result="effect1_foregroundBlur_172_663"/>
</filter>
<linearGradient id="paint0_linear_172_663" x1="445.973" y1="-237.09" x2="42.2674" y2="147.736" gradientUnits="userSpaceOnUse">
<stop stop-color="#1FA4DD"/>
<stop offset="1" stop-color="#06709E"/>
<stop offset="1" stop-color="#06709E"/>
</linearGradient>
<linearGradient id="paint1_linear_172_663" x1="427.367" y1="-217.289" x2="-11.0244" y2="130.636" gradientUnits="userSpaceOnUse">
<stop stop-color="#1FA4DD"/>
<stop offset="1" stop-color="#06709E"/>
<stop offset="1" stop-color="#06709E"/>
</linearGradient>
<linearGradient id="paint2_linear_172_663" x1="407.27" y1="-199.365" x2="-62.3117" y2="108.067" gradientUnits="userSpaceOnUse">
<stop stop-color="#1FA4DD"/>
<stop offset="1" stop-color="#06709E"/>
<stop offset="1" stop-color="#06709E"/>
</linearGradient>
<linearGradient id="paint3_linear_172_663" x1="385.861" y1="-183.453" x2="-110.925" y2="80.2714" gradientUnits="userSpaceOnUse">
<stop stop-color="#1FA4DD"/>
<stop offset="1" stop-color="#06709E"/>
<stop offset="1" stop-color="#06709E"/>
</linearGradient>
<linearGradient id="paint4_linear_172_663" x1="363.329" y1="-169.653" x2="-156.244" y2="47.6233" gradientUnits="userSpaceOnUse">
<stop stop-color="#1FA4DD"/>
<stop offset="1" stop-color="#06709E"/>
<stop offset="1" stop-color="#06709E"/>
</linearGradient>
<linearGradient id="paint5_linear_172_663" x1="339.875" y1="-158.051" x2="-197.713" y2="10.5892" gradientUnits="userSpaceOnUse">
<stop stop-color="#1FA4DD"/>
<stop offset="1" stop-color="#06709E"/>
<stop offset="1" stop-color="#06709E"/>
</linearGradient>
<linearGradient id="paint6_linear_172_663" x1="315.708" y1="-148.733" x2="-234.873" y2="-30.3053" gradientUnits="userSpaceOnUse">
<stop stop-color="#1FA4DD"/>
<stop offset="1" stop-color="#06709E"/>
<stop offset="1" stop-color="#06709E"/>
</linearGradient>
<linearGradient id="paint7_linear_172_663" x1="291.039" y1="-141.746" x2="-267.369" y2="-74.4592" gradientUnits="userSpaceOnUse">
<stop stop-color="#1FA4DD"/>
<stop offset="1" stop-color="#06709E"/>
<stop offset="1" stop-color="#06709E"/>
</linearGradient>
<linearGradient id="paint8_linear_172_663" x1="266.083" y1="-137.133" x2="-294.96" y2="-121.261" gradientUnits="userSpaceOnUse">
<stop stop-color="#1FA4DD"/>
<stop offset="1" stop-color="#06709E"/>
<stop offset="1" stop-color="#06709E"/>
</linearGradient>
<linearGradient id="paint9_linear_172_663" x1="241.06" y1="-134.915" x2="-317.511" y2="-170.096" gradientUnits="userSpaceOnUse">
<stop stop-color="#1FA4DD"/>
<stop offset="1" stop-color="#06709E"/>
<stop offset="1" stop-color="#06709E"/>
</linearGradient>
<linearGradient id="paint10_linear_172_663" x1="216.188" y1="-135.099" x2="-334.99" y2="-220.381" gradientUnits="userSpaceOnUse">
<stop stop-color="#1FA4DD"/>
<stop offset="1" stop-color="#06709E"/>
<stop offset="1" stop-color="#06709E"/>
</linearGradient>
<linearGradient id="paint11_linear_172_663" x1="191.685" y1="-137.66" x2="-347.448" y2="-271.563" gradientUnits="userSpaceOnUse">
<stop stop-color="#1FA4DD"/>
<stop offset="1" stop-color="#06709E"/>
<stop offset="1" stop-color="#06709E"/>
</linearGradient>
<linearGradient id="paint12_linear_172_663" x1="167.764" y1="-142.574" x2="-355.003" y2="-323.167" gradientUnits="userSpaceOnUse">
<stop stop-color="#1FA4DD"/>
<stop offset="1" stop-color="#06709E"/>
<stop offset="1" stop-color="#06709E"/>
</linearGradient>
<linearGradient id="paint13_linear_172_663" x1="144.638" y1="-149.79" x2="-357.817" y2="-374.775" gradientUnits="userSpaceOnUse">
<stop stop-color="#1FA4DD"/>
<stop offset="1" stop-color="#06709E"/>
<stop offset="1" stop-color="#06709E"/>
</linearGradient>
<linearGradient id="paint14_linear_172_663" x1="122.51" y1="-159.231" x2="-356.079" y2="-426.024" gradientUnits="userSpaceOnUse">
<stop stop-color="#1FA4DD"/>
<stop offset="1" stop-color="#06709E"/>
<stop offset="1" stop-color="#06709E"/>
</linearGradient>
<linearGradient id="paint15_linear_172_663" x1="101.581" y1="-170.817" x2="-349.978" y2="-476.627" gradientUnits="userSpaceOnUse">
<stop stop-color="#1FA4DD"/>
<stop offset="1" stop-color="#06709E"/>
<stop offset="1" stop-color="#06709E"/>
</linearGradient>
<linearGradient id="paint16_linear_172_663" x1="82.031" y1="-184.446" x2="-339.712" y2="-526.341" gradientUnits="userSpaceOnUse">
<stop stop-color="#1FA4DD"/>
<stop offset="1" stop-color="#06709E"/>
<stop offset="1" stop-color="#06709E"/>
</linearGradient>
<linearGradient id="paint17_linear_172_663" x1="64.041" y1="-200" x2="-325.447" y2="-574.966" gradientUnits="userSpaceOnUse">
<stop stop-color="#1FA4DD"/>
<stop offset="1" stop-color="#06709E"/>
<stop offset="1" stop-color="#06709E"/>
</linearGradient>
<linearGradient id="paint18_linear_172_663" x1="47.7772" y1="-217.343" x2="-307.333" y2="-622.324" gradientUnits="userSpaceOnUse">
<stop stop-color="#1FA4DD"/>
<stop offset="1" stop-color="#06709E"/>
<stop offset="1" stop-color="#06709E"/>
</linearGradient>
<linearGradient id="paint19_linear_172_663" x1="33.391" y1="-236.336" x2="-285.493" y2="-668.267" gradientUnits="userSpaceOnUse">
<stop stop-color="#1FA4DD"/>
<stop offset="1" stop-color="#06709E"/>
<stop offset="1" stop-color="#06709E"/>
</linearGradient>
<linearGradient id="paint20_linear_172_663" x1="21.0201" y1="-256.814" x2="-260.027" y2="-712.633" gradientUnits="userSpaceOnUse">
<stop stop-color="#1FA4DD"/>
<stop offset="1" stop-color="#06709E"/>
<stop offset="1" stop-color="#06709E"/>
</linearGradient>
<linearGradient id="paint21_linear_172_663" x1="10.7862" y1="-278.612" x2="-231.014" y2="-755.268" gradientUnits="userSpaceOnUse">
<stop stop-color="#1FA4DD"/>
<stop offset="1" stop-color="#06709E"/>
<stop offset="1" stop-color="#06709E"/>
</linearGradient>
<linearGradient id="paint22_linear_172_663" x1="2.79744" y1="-301.546" x2="-198.515" y2="-795.994" gradientUnits="userSpaceOnUse">
<stop stop-color="#1FA4DD"/>
<stop offset="1" stop-color="#06709E"/>
<stop offset="1" stop-color="#06709E"/>
</linearGradient>
<linearGradient id="paint23_linear_172_663" x1="-2.85801" y1="-325.432" x2="-162.588" y2="-834.616" gradientUnits="userSpaceOnUse">
<stop stop-color="#1FA4DD"/>
<stop offset="1" stop-color="#06709E"/>
<stop offset="1" stop-color="#06709E"/>
</linearGradient>
<clipPath id="clip0_172_663">
<rect width="756" height="978" fill="white"/>
</clipPath>
</defs>
</svg>
