<svg width="32" height="32" viewBox="0 0 32 32" fill="none" xmlns="http://www.w3.org/2000/svg">
<rect width="32" height="32" rx="16" fill="#0F445D"/>
<path d="M17.3337 9.33325V11.9999C17.3337 12.3535 17.4741 12.6927 17.7242 12.9427C17.9742 13.1928 18.3134 13.3333 18.667 13.3333H21.3337M18.0003 9.33325H12.0003C11.6467 9.33325 11.3076 9.47373 11.0575 9.72378C10.8075 9.97382 10.667 10.313 10.667 10.6666V21.3333C10.667 21.6869 10.8075 22.026 11.0575 22.2761C11.3076 22.5261 11.6467 22.6666 12.0003 22.6666H20.0003C20.3539 22.6666 20.6931 22.5261 20.9431 22.2761C21.1932 22.026 21.3337 21.6869 21.3337 21.3333V12.6666L18.0003 9.33325Z" stroke="#2193C9" stroke-width="1.6" stroke-linecap="round" stroke-linejoin="round"/>
</svg>
