<svg width="32" height="32" viewBox="0 0 32 32" fill="none" xmlns="http://www.w3.org/2000/svg">
<rect width="32" height="32" rx="16" fill="#E9F6FC"/>
<path d="M17.3332 9.33337V12C17.3332 12.3537 17.4736 12.6928 17.7237 12.9428C17.9737 13.1929 18.3129 13.3334 18.6665 13.3334H21.3332M17.9998 9.33337H11.9998C11.6462 9.33337 11.3071 9.47385 11.057 9.7239C10.807 9.97395 10.6665 10.3131 10.6665 10.6667V21.3334C10.6665 21.687 10.807 22.0261 11.057 22.2762C11.3071 22.5262 11.6462 22.6667 11.9998 22.6667H19.9998C20.3535 22.6667 20.6926 22.5262 20.9426 22.2762C21.1927 22.0261 21.3332 21.687 21.3332 21.3334V12.6667L17.9998 9.33337Z" stroke="#24A1DD" stroke-width="1.6" stroke-linecap="round" stroke-linejoin="round"/>
</svg>
