<svg width="24" height="24" viewBox="0 0 24 24" fill="none" xmlns="http://www.w3.org/2000/svg">
<path d="M23.5861 19.8621H0.413812C0.185297 19.8621 0 19.6768 0 19.4483V4.55175C0 4.32324 0.185297 4.13794 0.413812 4.13794H23.5862C23.8147 4.13794 24 4.32324 24 4.55175V19.4483C24 19.6768 23.8147 19.8621 23.5861 19.8621Z" fill="#F5F5F5"/>
<path d="M24 5.34755H0V4.55175C0 4.32324 0.185297 4.13794 0.413812 4.13794H23.5862C23.8147 4.13794 24 4.32324 24 4.55175L24 5.34755Z" fill="#FF4B55"/>
<path d="M24 8.9761H0V10.1857H24V8.9761Z" fill="#FF4B55"/>
<path d="M24 6.55688H0V7.76644H24V6.55688Z" fill="#FF4B55"/>
<path d="M24 12.6048H0.413812C0.185297 12.6048 0 12.4195 0 12.191V11.3952H24V12.6048Z" fill="#FF4B55"/>
<path d="M24 16.2338H0V17.4433H24V16.2338Z" fill="#FF4B55"/>
<path d="M23.5861 19.8621H0.413812C0.185297 19.8621 0 19.6768 0 19.4482V18.6525H24V19.4483C24 19.6768 23.8147 19.8621 23.5861 19.8621Z" fill="#FF4B55"/>
<path d="M24 13.8145H0V15.0241H24V13.8145Z" fill="#FF4B55"/>
<path d="M10.7586 4.138H0.413812C0.185297 4.138 0 4.32325 0 4.55177V12.191C0 12.4195 0.185297 12.6048 0.413812 12.6048H10.7586C10.9872 12.6048 11.1724 12.4195 11.1724 12.191V4.55177C11.1724 4.32325 10.9871 4.138 10.7586 4.138Z" fill="#41479B"/>
<path d="M1.16232 5.08771L1.25391 5.3624L1.54346 5.3646C1.58096 5.36493 1.59647 5.41274 1.56633 5.43501L1.33341 5.60704L1.42079 5.88309C1.43213 5.9188 1.39139 5.94843 1.36088 5.92659L1.12533 5.75826L0.889787 5.92663C0.859271 5.94843 0.818631 5.91885 0.829881 5.88313L0.917255 5.60709L0.684334 5.43506C0.654193 5.41274 0.669709 5.36498 0.707209 5.36465L0.996755 5.36245L1.08835 5.08776C1.10016 5.05213 1.15041 5.05213 1.16232 5.08771Z" fill="#F5F5F5"/>
<path d="M1.16213 6.52463L1.25373 6.79932L1.54327 6.80152C1.58077 6.80185 1.59629 6.84966 1.56615 6.87192L1.33323 7.04396L1.4206 7.32C1.43195 7.35572 1.39121 7.38535 1.3607 7.3635L1.12515 7.19517L0.889604 7.36355C0.859088 7.38535 0.818447 7.35577 0.829697 7.32005L0.917072 7.044L0.684151 6.87197C0.65401 6.84966 0.669526 6.80189 0.707026 6.80157L0.996572 6.79936L1.08817 6.52468C1.09998 6.4891 1.15023 6.4891 1.16213 6.52463Z" fill="#F5F5F5"/>
<path d="M1.16213 7.96152L1.25373 8.2362L1.54327 8.23841C1.58077 8.23874 1.59629 8.28655 1.56615 8.30881L1.33323 8.48084L1.4206 8.75689C1.43195 8.79261 1.39121 8.82223 1.3607 8.80039L1.12515 8.63206L0.889604 8.80044C0.859088 8.82223 0.818447 8.79266 0.829697 8.75694L0.917072 8.48089L0.684151 8.30886C0.65401 8.28655 0.669526 8.23878 0.707026 8.23845L0.996572 8.23625L1.08817 7.96157C1.09998 7.92599 1.15023 7.92599 1.16213 7.96152Z" fill="#F5F5F5"/>
<path d="M1.16213 9.3985L1.25373 9.67319L1.54327 9.67539C1.58077 9.67572 1.59629 9.72353 1.56615 9.7458L1.33323 9.91783L1.4206 10.1939C1.43195 10.2296 1.39121 10.2592 1.3607 10.2374L1.12515 10.069L0.889604 10.2374C0.859088 10.2592 0.818447 10.2296 0.829697 10.1939L0.917072 9.91788L0.684151 9.74585C0.65401 9.72353 0.669526 9.67577 0.707026 9.67544L0.996572 9.67324L1.08817 9.39855C1.09998 9.36293 1.15023 9.36293 1.16213 9.3985Z" fill="#F5F5F5"/>
<path d="M1.16213 10.8354L1.25373 11.1101L1.54327 11.1123C1.58077 11.1126 1.59629 11.1604 1.56615 11.1827L1.33323 11.3547L1.4206 11.6307C1.43195 11.6665 1.39121 11.6961 1.3607 11.6742L1.12515 11.5059L0.889604 11.6743C0.859088 11.6961 0.818447 11.6665 0.829697 11.6308L0.917072 11.3547L0.684151 11.1827C0.65401 11.1604 0.669526 11.1126 0.707026 11.1123L0.996572 11.1101L1.08817 10.8354C1.09998 10.7997 1.15023 10.7997 1.16213 10.8354Z" fill="#F5F5F5"/>
<path d="M2.2774 5.79218L2.36899 6.06687L2.65854 6.06907C2.69604 6.0694 2.71155 6.11721 2.68141 6.13948L2.44849 6.31151L2.53587 6.58756C2.54721 6.62327 2.50648 6.6529 2.47596 6.63106L2.24041 6.46268L2.00487 6.63106C1.97435 6.65285 1.93371 6.62327 1.94496 6.58756L2.03234 6.31151L1.79942 6.13948C1.76928 6.11717 1.78479 6.0694 1.82229 6.06907L2.11184 6.06687L2.20343 5.79218C2.2152 5.75665 2.26554 5.75665 2.2774 5.79218Z" fill="#F5F5F5"/>
<path d="M2.2774 7.22914L2.36899 7.50382L2.65854 7.50603C2.69604 7.50635 2.71155 7.55417 2.68141 7.57643L2.44849 7.74846L2.53587 8.02451C2.54721 8.06023 2.50648 8.08985 2.47596 8.06801L2.24041 7.89963L2.00487 8.06801C1.97435 8.08981 1.93371 8.06027 1.94496 8.02451L2.03234 7.74846L1.79942 7.57643C1.76928 7.55412 1.78479 7.50635 1.82229 7.50603L2.11184 7.50382L2.20343 7.22914C2.2152 7.19356 2.26554 7.19356 2.2774 7.22914Z" fill="#F5F5F5"/>
<path d="M2.2774 8.66606L2.36899 8.94074L2.65854 8.94295C2.69604 8.94328 2.71155 8.99109 2.68141 9.01335L2.44849 9.18538L2.53587 9.46143C2.54721 9.49715 2.50648 9.52677 2.47596 9.50493L2.24041 9.33656L2.00487 9.50493C1.97435 9.52673 1.93371 9.49715 1.94496 9.46143L2.03234 9.18538L1.79942 9.01335C1.76928 8.99104 1.78479 8.94328 1.82229 8.94295L2.11184 8.94074L2.20343 8.66606C2.2152 8.63048 2.26554 8.63048 2.2774 8.66606Z" fill="#F5F5F5"/>
<path d="M2.2774 10.1029L2.36899 10.3776L2.65854 10.3798C2.69604 10.3802 2.71155 10.428 2.68141 10.4502L2.44849 10.6223L2.53587 10.8983C2.54721 10.934 2.50648 10.9637 2.47596 10.9418L2.24041 10.7734L2.00487 10.9418C1.97435 10.9636 1.93371 10.934 1.94496 10.8983L2.03234 10.6223L1.79942 10.4502C1.76928 10.4279 1.78479 10.3802 1.82229 10.3798L2.11184 10.3776L2.20343 10.1029C2.2152 10.0674 2.26554 10.0674 2.2774 10.1029Z" fill="#F5F5F5"/>
<path d="M3.39273 5.08772L3.48432 5.36241L3.77386 5.36461C3.81136 5.36494 3.82688 5.41275 3.79674 5.43501L3.56382 5.60705L3.65119 5.88309C3.66254 5.91881 3.6218 5.94843 3.59129 5.92659L3.35574 5.75822L3.12019 5.92659C3.08968 5.94839 3.04904 5.91881 3.06029 5.88309L3.14766 5.60705L2.91474 5.43501C2.8846 5.4127 2.90012 5.36494 2.93762 5.36461L3.22716 5.36241L3.31876 5.08772C3.33057 5.05214 3.38087 5.05214 3.39273 5.08772Z" fill="#F5F5F5"/>
<path d="M3.39273 6.52463L3.48432 6.79932L3.77386 6.80152C3.81136 6.80185 3.82688 6.84966 3.79674 6.87193L3.56382 7.04396L3.65119 7.32001C3.66254 7.35573 3.6218 7.38535 3.59129 7.36351L3.35574 7.19513L3.12019 7.36351C3.08968 7.3853 3.04904 7.35573 3.06029 7.32001L3.14766 7.04396L2.91474 6.87193C2.8846 6.84962 2.90012 6.80185 2.93762 6.80152L3.22716 6.79932L3.31876 6.52463C3.33057 6.4891 3.38087 6.4891 3.39273 6.52463Z" fill="#F5F5F5"/>
<path d="M3.39273 7.96152L3.48432 8.23621L3.77386 8.23842C3.81136 8.23874 3.82688 8.28656 3.79674 8.30882L3.56382 8.48085L3.65119 8.7569C3.66254 8.79262 3.6218 8.82224 3.59129 8.8004L3.35574 8.63202L3.12019 8.8004C3.08968 8.8222 3.04904 8.79262 3.06029 8.7569L3.14766 8.48085L2.91474 8.30882C2.8846 8.28651 2.90012 8.23874 2.93762 8.23842L3.22716 8.23621L3.31876 7.96152C3.33057 7.92599 3.38087 7.92599 3.39273 7.96152Z" fill="#F5F5F5"/>
<path d="M3.39273 9.39848L3.48432 9.67317L3.77386 9.67537C3.81136 9.6757 3.82688 9.72351 3.79674 9.74578L3.56382 9.91781L3.65119 10.1939C3.66254 10.2296 3.6218 10.2592 3.59129 10.2374L3.35574 10.069L3.12019 10.2374C3.08968 10.2591 3.04904 10.2296 3.06029 10.1939L3.14766 9.91781L2.91474 9.74578C2.8846 9.72346 2.90012 9.6757 2.93762 9.67537L3.22716 9.67317L3.31876 9.39848C3.33057 9.3629 3.38087 9.3629 3.39273 9.39848Z" fill="#F5F5F5"/>
<path d="M3.39273 10.8354L3.48432 11.1101L3.77386 11.1123C3.81136 11.1126 3.82688 11.1604 3.79674 11.1827L3.56382 11.3547L3.65119 11.6307C3.66254 11.6665 3.6218 11.6961 3.59129 11.6742L3.35574 11.5059L3.12019 11.6742C3.08968 11.696 3.04904 11.6665 3.06029 11.6307L3.14766 11.3547L2.91474 11.1827C2.8846 11.1604 2.90012 11.1126 2.93762 11.1123L3.22716 11.1101L3.31876 10.8354C3.33057 10.7997 3.38087 10.7997 3.39273 10.8354Z" fill="#F5F5F5"/>
<path d="M4.50811 5.79218L4.59971 6.06687L4.88925 6.06907C4.92675 6.0694 4.94227 6.11721 4.91213 6.13948L4.67921 6.31151L4.76658 6.58756C4.77792 6.62327 4.73719 6.6529 4.70667 6.63106L4.47113 6.46268L4.23558 6.63106C4.20507 6.65285 4.16443 6.62327 4.17568 6.58756L4.26305 6.31151L4.03013 6.13948C3.99999 6.11717 4.0155 6.0694 4.053 6.06907L4.34255 6.06687L4.43414 5.79218C4.44591 5.75665 4.49625 5.75665 4.50811 5.79218Z" fill="#F5F5F5"/>
<path d="M4.50811 7.22914L4.59971 7.50382L4.88925 7.50603C4.92675 7.50635 4.94227 7.55417 4.91213 7.57643L4.67921 7.74846L4.76658 8.02451C4.77792 8.06023 4.73719 8.08985 4.70667 8.06801L4.47113 7.89963L4.23558 8.06801C4.20507 8.08981 4.16443 8.06027 4.17568 8.02451L4.26305 7.74846L4.03013 7.57643C3.99999 7.55412 4.0155 7.50635 4.053 7.50603L4.34255 7.50382L4.43414 7.22914C4.44591 7.19356 4.49625 7.19356 4.50811 7.22914Z" fill="#F5F5F5"/>
<path d="M4.50811 8.66606L4.59971 8.94074L4.88925 8.94295C4.92675 8.94328 4.94227 8.99109 4.91213 9.01335L4.67921 9.18538L4.76658 9.46143C4.77792 9.49715 4.73719 9.52677 4.70667 9.50493L4.47113 9.33656L4.23558 9.50493C4.20507 9.52673 4.16443 9.49715 4.17568 9.46143L4.26305 9.18538L4.03013 9.01335C3.99999 8.99104 4.0155 8.94328 4.053 8.94295L4.34255 8.94074L4.43414 8.66606C4.44591 8.63048 4.49625 8.63048 4.50811 8.66606Z" fill="#F5F5F5"/>
<path d="M4.50811 10.1029L4.59971 10.3776L4.88925 10.3798C4.92675 10.3802 4.94227 10.428 4.91213 10.4502L4.67921 10.6223L4.76658 10.8983C4.77792 10.934 4.73719 10.9637 4.70667 10.9418L4.47113 10.7734L4.23558 10.9418C4.20507 10.9636 4.16443 10.934 4.17568 10.8983L4.26305 10.6223L4.03013 10.4502C3.99999 10.4279 4.0155 10.3802 4.053 10.3798L4.34255 10.3776L4.43414 10.1029C4.44591 10.0674 4.49625 10.0674 4.50811 10.1029Z" fill="#F5F5F5"/>
<path d="M5.62336 5.08772L5.71496 5.36241L6.0045 5.36461C6.042 5.36494 6.05752 5.41275 6.02738 5.43501L5.79446 5.60705L5.88183 5.88309C5.89317 5.91881 5.85244 5.94843 5.82192 5.92659L5.58633 5.75822L5.35079 5.92659C5.32027 5.94839 5.27963 5.91881 5.29088 5.88309L5.37825 5.60705L5.14533 5.43501C5.11519 5.4127 5.13071 5.36494 5.16821 5.36461L5.45775 5.36241L5.54935 5.08772C5.56121 5.05214 5.6115 5.05214 5.62336 5.08772Z" fill="#F5F5F5"/>
<path d="M5.62336 6.52463L5.71496 6.79932L6.0045 6.80152C6.042 6.80185 6.05752 6.84966 6.02738 6.87193L5.79446 7.04396L5.88183 7.32001C5.89317 7.35573 5.85244 7.38535 5.82192 7.36351L5.58633 7.19513L5.35079 7.36351C5.32027 7.3853 5.27963 7.35573 5.29088 7.32001L5.37825 7.04396L5.14533 6.87193C5.11519 6.84962 5.13071 6.80185 5.16821 6.80152L5.45775 6.79932L5.54935 6.52463C5.56121 6.4891 5.6115 6.4891 5.62336 6.52463Z" fill="#F5F5F5"/>
<path d="M5.62336 7.96152L5.71496 8.23621L6.0045 8.23842C6.042 8.23874 6.05752 8.28656 6.02738 8.30882L5.79446 8.48085L5.88183 8.7569C5.89317 8.79262 5.85244 8.82224 5.82192 8.8004L5.58633 8.63202L5.35079 8.8004C5.32027 8.8222 5.27963 8.79262 5.29088 8.7569L5.37825 8.48085L5.14533 8.30882C5.11519 8.28651 5.13071 8.23874 5.16821 8.23842L5.45775 8.23621L5.54935 7.96152C5.56121 7.92599 5.6115 7.92599 5.62336 7.96152Z" fill="#F5F5F5"/>
<path d="M5.62336 9.39848L5.71496 9.67317L6.0045 9.67537C6.042 9.6757 6.05752 9.72351 6.02738 9.74578L5.79446 9.91781L5.88183 10.1939C5.89317 10.2296 5.85244 10.2592 5.82192 10.2374L5.58633 10.069L5.35079 10.2374C5.32027 10.2591 5.27963 10.2296 5.29088 10.1939L5.37825 9.91781L5.14533 9.74578C5.11519 9.72346 5.13071 9.6757 5.16821 9.67537L5.45775 9.67317L5.54935 9.39848C5.56121 9.3629 5.6115 9.3629 5.62336 9.39848Z" fill="#F5F5F5"/>
<path d="M5.62336 10.8354L5.71496 11.1101L6.0045 11.1123C6.042 11.1126 6.05752 11.1604 6.02738 11.1827L5.79446 11.3547L5.88183 11.6307C5.89317 11.6665 5.85244 11.6961 5.82192 11.6742L5.58633 11.5059L5.35079 11.6742C5.32027 11.696 5.27963 11.6665 5.29088 11.6307L5.37825 11.3547L5.14533 11.1827C5.11519 11.1604 5.13071 11.1126 5.16821 11.1123L5.45775 11.1101L5.54935 10.8354C5.56121 10.7997 5.6115 10.7997 5.62336 10.8354Z" fill="#F5F5F5"/>
<path d="M6.7387 5.79218L6.8303 6.06687L7.11984 6.06907C7.15734 6.0694 7.17286 6.11721 7.14272 6.13948L6.9098 6.31151L6.99717 6.58756C7.00852 6.62327 6.96778 6.6529 6.93727 6.63106L6.70172 6.46268L6.46617 6.63106C6.43566 6.65285 6.39502 6.62327 6.40627 6.58756L6.49364 6.31151L6.26072 6.13948C6.23058 6.11717 6.24609 6.0694 6.28359 6.06907L6.57314 6.06687L6.66473 5.79218C6.67659 5.75665 6.72684 5.75665 6.7387 5.79218Z" fill="#F5F5F5"/>
<path d="M6.7387 7.22914L6.8303 7.50382L7.11984 7.50603C7.15734 7.50635 7.17286 7.55417 7.14272 7.57643L6.9098 7.74846L6.99717 8.02451C7.00852 8.06023 6.96778 8.08985 6.93727 8.06801L6.70172 7.89963L6.46617 8.06801C6.43566 8.08981 6.39502 8.06027 6.40627 8.02451L6.49364 7.74846L6.26072 7.57643C6.23058 7.55412 6.24609 7.50635 6.28359 7.50603L6.57314 7.50382L6.66473 7.22914C6.67659 7.19356 6.72684 7.19356 6.7387 7.22914Z" fill="#F5F5F5"/>
<path d="M6.7387 8.66606L6.8303 8.94074L7.11984 8.94295C7.15734 8.94328 7.17286 8.99109 7.14272 9.01335L6.9098 9.18538L6.99717 9.46143C7.00852 9.49715 6.96778 9.52677 6.93727 9.50493L6.70172 9.33656L6.46617 9.50493C6.43566 9.52673 6.39502 9.49715 6.40627 9.46143L6.49364 9.18538L6.26072 9.01335C6.23058 8.99104 6.24609 8.94328 6.28359 8.94295L6.57314 8.94074L6.66473 8.66606C6.67659 8.63048 6.72684 8.63048 6.7387 8.66606Z" fill="#F5F5F5"/>
<path d="M6.7387 10.1029L6.8303 10.3776L7.11984 10.3798C7.15734 10.3802 7.17286 10.428 7.14272 10.4502L6.9098 10.6223L6.99717 10.8983C7.00852 10.934 6.96778 10.9637 6.93727 10.9418L6.70172 10.7734L6.46617 10.9418C6.43566 10.9636 6.39502 10.934 6.40627 10.8983L6.49364 10.6223L6.26072 10.4502C6.23058 10.4279 6.24609 10.3802 6.28359 10.3798L6.57314 10.3776L6.66473 10.1029C6.67659 10.0674 6.72684 10.0674 6.7387 10.1029Z" fill="#F5F5F5"/>
<path d="M7.85403 5.08772L7.94562 5.36241L8.23517 5.36461C8.27267 5.36494 8.28819 5.41275 8.25804 5.43501L8.02512 5.60705L8.1125 5.88309C8.12384 5.91881 8.08311 5.94843 8.05259 5.92659L7.81704 5.75822L7.5815 5.92659C7.55098 5.94839 7.51034 5.91881 7.52159 5.88309L7.60897 5.60705L7.37605 5.43501C7.3459 5.4127 7.36142 5.36494 7.39892 5.36461L7.68847 5.36241L7.78006 5.08772C7.79183 5.05214 7.84217 5.05214 7.85403 5.08772Z" fill="#F5F5F5"/>
<path d="M7.85403 6.52463L7.94562 6.79932L8.23517 6.80152C8.27267 6.80185 8.28819 6.84966 8.25804 6.87193L8.02512 7.04396L8.1125 7.32001C8.12384 7.35573 8.08311 7.38535 8.05259 7.36351L7.81704 7.19513L7.5815 7.36351C7.55098 7.3853 7.51034 7.35573 7.52159 7.32001L7.60897 7.04396L7.37605 6.87193C7.3459 6.84962 7.36142 6.80185 7.39892 6.80152L7.68847 6.79932L7.78006 6.52463C7.79183 6.4891 7.84217 6.4891 7.85403 6.52463Z" fill="#F5F5F5"/>
<path d="M7.85403 7.96152L7.94562 8.23621L8.23517 8.23842C8.27267 8.23874 8.28819 8.28656 8.25804 8.30882L8.02512 8.48085L8.1125 8.7569C8.12384 8.79262 8.08311 8.82224 8.05259 8.8004L7.81704 8.63202L7.5815 8.8004C7.55098 8.8222 7.51034 8.79262 7.52159 8.7569L7.60897 8.48085L7.37605 8.30882C7.3459 8.28651 7.36142 8.23874 7.39892 8.23842L7.68847 8.23621L7.78006 7.96152C7.79183 7.92599 7.84217 7.92599 7.85403 7.96152Z" fill="#F5F5F5"/>
<path d="M7.85403 9.39848L7.94562 9.67317L8.23517 9.67537C8.27267 9.6757 8.28819 9.72351 8.25804 9.74578L8.02512 9.91781L8.1125 10.1939C8.12384 10.2296 8.08311 10.2592 8.05259 10.2374L7.81704 10.069L7.5815 10.2374C7.55098 10.2591 7.51034 10.2296 7.52159 10.1939L7.60897 9.91781L7.37605 9.74578C7.3459 9.72346 7.36142 9.6757 7.39892 9.67537L7.68847 9.67317L7.78006 9.39848C7.79183 9.3629 7.84217 9.3629 7.85403 9.39848Z" fill="#F5F5F5"/>
<path d="M7.85403 10.8354L7.94562 11.1101L8.23517 11.1123C8.27267 11.1126 8.28819 11.1604 8.25804 11.1827L8.02512 11.3547L8.1125 11.6307C8.12384 11.6665 8.08311 11.6961 8.05259 11.6742L7.81704 11.5059L7.5815 11.6742C7.55098 11.696 7.51034 11.6665 7.52159 11.6307L7.60897 11.3547L7.37605 11.1827C7.3459 11.1604 7.36142 11.1126 7.39892 11.1123L7.68847 11.1101L7.78006 10.8354C7.79183 10.7997 7.84217 10.7997 7.85403 10.8354Z" fill="#F5F5F5"/>
<path d="M8.96929 5.79218L9.06089 6.06687L9.35043 6.06907C9.38793 6.0694 9.40345 6.11721 9.37331 6.13948L9.14039 6.31151L9.22776 6.58756C9.23911 6.62327 9.19837 6.6529 9.16786 6.63106L8.93231 6.46268L8.69676 6.63106C8.66625 6.65285 8.62561 6.62327 8.63686 6.58756L8.72423 6.31151L8.49131 6.13948C8.46117 6.11717 8.47668 6.0694 8.51418 6.06907L8.80373 6.06687L8.89533 5.79218C8.90714 5.75665 8.95748 5.75665 8.96929 5.79218Z" fill="#F5F5F5"/>
<path d="M8.96929 7.22914L9.06089 7.50382L9.35043 7.50603C9.38793 7.50635 9.40345 7.55417 9.37331 7.57643L9.14039 7.74846L9.22776 8.02451C9.23911 8.06023 9.19837 8.08985 9.16786 8.06801L8.93231 7.89963L8.69676 8.06801C8.66625 8.08981 8.62561 8.06027 8.63686 8.02451L8.72423 7.74846L8.49131 7.57643C8.46117 7.55412 8.47668 7.50635 8.51418 7.50603L8.80373 7.50382L8.89533 7.22914C8.90714 7.19356 8.95748 7.19356 8.96929 7.22914Z" fill="#F5F5F5"/>
<path d="M8.96929 8.66606L9.06089 8.94074L9.35043 8.94295C9.38793 8.94328 9.40345 8.99109 9.37331 9.01335L9.14039 9.18538L9.22776 9.46143C9.23911 9.49715 9.19837 9.52677 9.16786 9.50493L8.93231 9.33656L8.69676 9.50493C8.66625 9.52673 8.62561 9.49715 8.63686 9.46143L8.72423 9.18538L8.49131 9.01335C8.46117 8.99104 8.47668 8.94328 8.51418 8.94295L8.80373 8.94074L8.89533 8.66606C8.90714 8.63048 8.95748 8.63048 8.96929 8.66606Z" fill="#F5F5F5"/>
<path d="M8.96929 10.1029L9.06089 10.3776L9.35043 10.3798C9.38793 10.3802 9.40345 10.428 9.37331 10.4502L9.14039 10.6223L9.22776 10.8983C9.23911 10.934 9.19837 10.9637 9.16786 10.9418L8.93231 10.7734L8.69676 10.9418C8.66625 10.9636 8.62561 10.934 8.63686 10.8983L8.72423 10.6223L8.49131 10.4502C8.46117 10.4279 8.47668 10.3802 8.51418 10.3798L8.80373 10.3776L8.89533 10.1029C8.90714 10.0674 8.95748 10.0674 8.96929 10.1029Z" fill="#F5F5F5"/>
<path d="M10.0846 5.08772L10.1762 5.36241L10.4658 5.36461C10.5033 5.36494 10.5188 5.41275 10.4886 5.43501L10.2557 5.60705L10.3431 5.88309C10.3544 5.91881 10.3137 5.94843 10.2832 5.92659L10.0476 5.75822L9.81209 5.92659C9.78157 5.94839 9.74093 5.91881 9.75218 5.88309L9.83956 5.60705L9.60664 5.43501C9.5765 5.4127 9.59201 5.36494 9.62951 5.36461L9.91906 5.36241L10.0107 5.08772C10.0225 5.05214 10.0727 5.05214 10.0846 5.08772Z" fill="#F5F5F5"/>
<path d="M10.0846 6.52463L10.1762 6.79932L10.4658 6.80152C10.5033 6.80185 10.5188 6.84966 10.4886 6.87193L10.2557 7.04396L10.3431 7.32001C10.3544 7.35573 10.3137 7.38535 10.2832 7.36351L10.0476 7.19513L9.81209 7.36351C9.78157 7.3853 9.74093 7.35573 9.75218 7.32001L9.83956 7.04396L9.60664 6.87193C9.5765 6.84962 9.59201 6.80185 9.62951 6.80152L9.91906 6.79932L10.0107 6.52463C10.0225 6.4891 10.0727 6.4891 10.0846 6.52463Z" fill="#F5F5F5"/>
<path d="M10.0846 7.96152L10.1762 8.23621L10.4658 8.23842C10.5033 8.23874 10.5188 8.28656 10.4886 8.30882L10.2557 8.48085L10.3431 8.7569C10.3544 8.79262 10.3137 8.82224 10.2832 8.8004L10.0476 8.63202L9.81209 8.8004C9.78157 8.8222 9.74093 8.79262 9.75218 8.7569L9.83956 8.48085L9.60664 8.30882C9.5765 8.28651 9.59201 8.23874 9.62951 8.23842L9.91906 8.23621L10.0107 7.96152C10.0225 7.92599 10.0727 7.92599 10.0846 7.96152Z" fill="#F5F5F5"/>
<path d="M10.0846 9.39848L10.1762 9.67317L10.4658 9.67537C10.5033 9.6757 10.5188 9.72351 10.4886 9.74578L10.2557 9.91781L10.3431 10.1939C10.3544 10.2296 10.3137 10.2592 10.2832 10.2374L10.0476 10.069L9.81209 10.2374C9.78157 10.2591 9.74093 10.2296 9.75218 10.1939L9.83956 9.91781L9.60664 9.74578C9.5765 9.72346 9.59201 9.6757 9.62951 9.67537L9.91906 9.67317L10.0107 9.39848C10.0225 9.3629 10.0727 9.3629 10.0846 9.39848Z" fill="#F5F5F5"/>
<path d="M10.0846 10.8354L10.1762 11.1101L10.4658 11.1123C10.5033 11.1126 10.5188 11.1604 10.4886 11.1827L10.2557 11.3547L10.3431 11.6307C10.3544 11.6665 10.3137 11.6961 10.2832 11.6742L10.0476 11.5059L9.81209 11.6742C9.78157 11.696 9.74093 11.6665 9.75218 11.6307L9.83956 11.3547L9.60664 11.1827C9.5765 11.1604 9.59201 11.1126 9.62951 11.1123L9.91906 11.1101L10.0107 10.8354C10.0225 10.7997 10.0727 10.7997 10.0846 10.8354Z" fill="#F5F5F5"/>
</svg>
