<svg width="24" height="24" viewBox="0 0 24 24" fill="none" xmlns="http://www.w3.org/2000/svg">
<g clip-path="url(#clip0_1_6676)">
<path d="M24.0002 9.37938H0.000274658V4.55178C0.000274658 4.32327 0.185571 4.13797 0.414086 4.13797H23.5865C23.815 4.13797 24.0003 4.32327 24.0003 4.55178L24.0002 9.37938Z" fill="#FAB446"/>
<path d="M23.5864 19.8621H0.414086C0.185571 19.8621 0.000274658 19.6768 0.000274658 19.4483V14.6208H24.0002V19.4483C24.0002 19.6769 23.8149 19.8621 23.5864 19.8621Z" fill="#73AF00"/>
<path d="M24.0002 9.3793H0.000274658V14.6204H24.0002V9.3793Z" fill="#F5F5F5"/>
<path d="M12.0002 14.2242C10.7737 14.2242 9.77606 13.2265 9.77606 12.0001C9.77606 10.7736 10.7737 9.77594 12.0002 9.77594C13.2266 9.77594 14.2243 10.7736 14.2243 12.0001C14.2243 13.2265 13.2266 14.2242 12.0002 14.2242ZM12.0002 10.1897C11.0018 10.1897 10.1898 11.0017 10.1898 12.0001C10.1898 12.9984 11.0018 13.8104 12.0002 13.8104C12.9985 13.8104 13.8105 12.9984 13.8105 12.0001C13.8105 11.0017 12.9985 10.1897 12.0002 10.1897Z" fill="#41479B"/>
<path d="M12.0002 12.2522C12.1395 12.2522 12.2524 12.1393 12.2524 12.0001C12.2524 11.8608 12.1395 11.748 12.0002 11.748C11.861 11.748 11.7481 11.8608 11.7481 12.0001C11.7481 12.1393 11.861 12.2522 12.0002 12.2522Z" fill="#41479B"/>
<path d="M12.0004 12.0379L11.3596 12.1026L9.98322 12.0379V11.9623L11.3596 11.8976L12.0004 11.9623V12.0379Z" fill="#41479B"/>
<path d="M12.0004 12.0379L12.6412 12.1026L14.0176 12.0379V11.9623L12.6412 11.8976L12.0004 11.9623V12.0379Z" fill="#41479B"/>
<path d="M11.9624 12.0001L11.8977 11.3593L11.9624 9.98288H12.0381L12.1028 11.3593L12.0381 12.0001H11.9624Z" fill="#41479B"/>
<path d="M11.9624 12.0001L11.8977 12.6409L11.9624 14.0173H12.0381L12.1028 12.6409L12.0381 12.0001H11.9624Z" fill="#41479B"/>
<path d="M11.9736 12.0268L11.4748 11.6195L10.5472 10.6005L10.6007 10.547L11.6198 11.4746L12.027 11.9734L11.9736 12.0268Z" fill="#41479B"/>
<path d="M11.9737 12.0268L12.381 12.5257L13.4 13.4532L13.4535 13.3997L12.5259 12.3807L12.0271 11.9734L11.9737 12.0268Z" fill="#41479B"/>
<path d="M11.9737 11.9734L12.381 11.4746L13.4 10.547L13.4535 10.6005L12.5259 11.6195L12.0271 12.0268L11.9737 11.9734Z" fill="#41479B"/>
<path d="M11.9736 11.9734L11.4748 12.3807L10.5472 13.3997L10.6007 13.4532L11.6198 12.5257L12.027 12.0268L11.9736 11.9734Z" fill="#41479B"/>
<path d="M12.0147 12.0351L11.4474 12.3401L10.1511 12.807L10.1221 12.7371L11.369 12.1506L11.9858 11.9651L12.0147 12.0351Z" fill="#41479B"/>
<path d="M12.0147 12.0351L12.6314 11.8496L13.8783 11.2631L13.8493 11.1932L12.553 11.6602L11.9857 11.9651L12.0147 12.0351Z" fill="#41479B"/>
<path d="M11.9652 12.0146L11.6602 11.4473L11.1933 10.1509L11.2632 10.122L11.8497 11.3689L12.0351 11.9856L11.9652 12.0146Z" fill="#41479B"/>
<path d="M11.9653 12.0146L12.1508 12.6313L12.7373 13.8782L12.8071 13.8493L12.3402 12.5529L12.0352 11.9856L11.9653 12.0146Z" fill="#41479B"/>
<path d="M11.9858 12.0351L11.369 11.8496L10.1221 11.2631L10.1511 11.1932L11.4474 11.6602L12.0147 11.9651L11.9858 12.0351Z" fill="#41479B"/>
<path d="M11.9857 12.0351L12.553 12.3401L13.8493 12.807L13.8783 12.7371L12.6314 12.1506L12.0147 11.9651L11.9857 12.0351Z" fill="#41479B"/>
<path d="M11.9653 11.9856L12.1508 11.3689L12.7373 10.122L12.8071 10.1509L12.3402 11.4473L12.0352 12.0146L11.9653 11.9856Z" fill="#41479B"/>
<path d="M11.9652 11.9856L11.6602 12.5529L11.1933 13.8493L11.2632 13.8782L11.8497 12.6313L12.0351 12.0146L11.9652 11.9856Z" fill="#41479B"/>
<path d="M12.0003 12.3402C12.1882 12.3402 12.3404 12.1879 12.3404 12.0001C12.3404 11.8122 12.1882 11.6599 12.0003 11.6599C11.8125 11.6599 11.6602 11.8122 11.6602 12.0001C11.6602 12.1879 11.8125 12.3402 12.0003 12.3402Z" fill="#F5F5F5"/>
<path d="M12.0003 12.204C12.113 12.204 12.2043 12.1127 12.2043 12.0001C12.2043 11.8874 12.113 11.7961 12.0003 11.7961C11.8877 11.7961 11.7964 11.8874 11.7964 12.0001C11.7964 12.1127 11.8877 12.204 12.0003 12.204Z" fill="#41479B"/>
</g>
<defs>
<clipPath id="clip0_1_6676">
<rect width="24" height="24" fill="white"/>
</clipPath>
</defs>
</svg>
