<svg width="30" height="27" viewBox="0 0 30 27" fill="none" xmlns="http://www.w3.org/2000/svg">
<path d="M11.8926 8.69421C11.4639 7.53576 9.8254 7.53576 9.39673 8.69421L7.9819 12.5178C7.84713 12.882 7.55997 13.1691 7.19575 13.3039L3.37221 14.7187C2.21376 15.1474 2.21376 16.7859 3.37221 17.2146L7.19575 18.6294C7.55997 18.7642 7.84713 19.0513 7.9819 19.4155L9.39673 23.2391C9.8254 24.3975 11.4639 24.3975 11.8926 23.2391L13.3074 19.4155C13.4422 19.0513 13.7293 18.7642 14.0935 18.6294L17.9171 17.2146C19.0755 16.7859 19.0755 15.1474 17.9171 14.7187L14.0935 13.3039C13.7293 13.1691 13.4422 12.882 13.3074 12.5178L11.8926 8.69421Z" fill="#24A1DD"/>
<path d="M23.2404 1.68622C23.0261 1.10699 22.2068 1.10699 21.9925 1.68622L20.9257 4.56921C20.8583 4.75132 20.7147 4.8949 20.5326 4.96228L17.6496 6.02908C17.0704 6.24342 17.0704 7.06266 17.6496 7.277L20.5326 8.3438C20.7147 8.41119 20.8583 8.55477 20.9257 8.73687L21.9925 11.6199C22.2068 12.1991 23.0261 12.1991 23.2404 11.6199L24.3072 8.73687C24.3746 8.55477 24.5182 8.41119 24.7003 8.3438L27.5833 7.277C28.1625 7.06266 28.1625 6.24342 27.5833 6.02908L24.7003 4.96228C24.5182 4.8949 24.3746 4.75132 24.3072 4.56921L23.2404 1.68622Z" fill="#24A1DD"/>
</svg>
