<svg width="59" height="54" viewBox="0 0 59 54" fill="none" xmlns="http://www.w3.org/2000/svg">
<path d="M23.7856 17.3884C22.9282 15.0715 19.6512 15.0715 18.7939 17.3884L15.9642 25.0355C15.6947 25.7639 15.1204 26.3382 14.3919 26.6078L6.74487 29.4375C4.42796 30.2948 4.42797 33.5718 6.74487 34.4291L14.3919 37.2588C15.1204 37.5283 15.6947 38.1026 15.9642 38.8311L18.7939 46.4782C19.6512 48.7951 22.9282 48.7951 23.7856 46.4782L26.6152 38.8311C26.8848 38.1026 27.4591 37.5283 28.1875 37.2588L35.8346 34.4291C38.1515 33.5718 38.1515 30.2948 35.8346 29.4375L28.1875 26.6078C27.4591 26.3382 26.8848 25.7639 26.6152 25.0355L23.7856 17.3884Z" fill="white"/>
<path d="M46.4813 3.37243C46.0526 2.21398 44.4141 2.21398 43.9854 3.37243L41.8518 9.13842C41.7171 9.50263 41.4299 9.78979 41.0657 9.92456L35.2997 12.0582C34.1412 12.4868 34.1412 14.1253 35.2997 14.554L41.0657 16.6876C41.4299 16.8224 41.7171 17.1095 41.8518 17.4737L43.9854 23.2397C44.4141 24.3982 46.0526 24.3982 46.4813 23.2397L48.6149 17.4737C48.7496 17.1095 49.0368 16.8224 49.401 16.6876L55.167 14.554C56.3254 14.1253 56.3254 12.4868 55.167 12.0582L49.401 9.92456C49.0368 9.78979 48.7496 9.50263 48.6149 9.13842L46.4813 3.37243Z" fill="white"/>
</svg>
