<svg width="30" height="27" viewBox="0 0 30 27" fill="none" xmlns="http://www.w3.org/2000/svg">
<path d="M11.8928 8.69412C11.4641 7.53567 9.82562 7.53567 9.39695 8.69412L7.98212 12.5177C7.84735 12.8819 7.56019 13.169 7.19597 13.3038L3.37243 14.7186C2.21398 15.1473 2.21398 16.7858 3.37243 17.2145L7.19597 18.6293C7.56019 18.7641 7.84735 19.0512 7.98212 19.4154L9.39695 23.239C9.82562 24.3974 11.4641 24.3974 11.8928 23.239L13.3076 19.4154C13.4424 19.0512 13.7295 18.7641 14.0938 18.6293L17.9173 17.2145C19.0758 16.7858 19.0758 15.1473 17.9173 14.7186L14.0938 13.3038C13.7295 13.169 13.4424 12.8819 13.3076 12.5177L11.8928 8.69412Z" fill="#1C2431"/>
<path d="M23.2404 1.68622C23.0261 1.10699 22.2068 1.10699 21.9925 1.68622L20.9257 4.56921C20.8583 4.75132 20.7147 4.8949 20.5326 4.96228L17.6496 6.02908C17.0704 6.24342 17.0704 7.06266 17.6496 7.277L20.5326 8.3438C20.7147 8.41119 20.8583 8.55477 20.9257 8.73687L21.9925 11.6199C22.2068 12.1991 23.0261 12.1991 23.2404 11.6199L24.3072 8.73687C24.3746 8.55477 24.5182 8.41119 24.7003 8.3438L27.5833 7.277C28.1625 7.06266 28.1625 6.24342 27.5833 6.02908L24.7003 4.96228C24.5182 4.8949 24.3746 4.75132 24.3072 4.56921L23.2404 1.68622Z" fill="#1C2431"/>
</svg>
