<svg width="29" height="29" viewBox="0 0 29 29" fill="none" xmlns="http://www.w3.org/2000/svg">
<path d="M18.1297 24.5093C18.1297 24.1286 18.0391 23.766 17.8759 23.4488C20.5948 23.0517 23.0627 21.6405 24.7839 19.4986C26.5051 17.3568 27.3521 14.6429 27.1547 11.9023C26.9573 9.16168 25.7301 6.59726 23.7197 4.7242C21.7093 2.85114 19.0646 1.8082 16.3169 1.80489C14.3962 1.80454 12.5097 2.31277 10.8491 3.27791C9.18853 4.24305 7.81312 5.63067 6.86271 7.29971C6.45087 7.21197 6.02386 7.22588 5.6186 7.34022C5.21335 7.45457 4.84204 7.66591 4.5368 7.95597C5.63669 5.22204 7.65352 2.95597 10.2414 1.54638C12.8293 0.136796 15.827 -0.328479 18.7204 0.230354C21.6138 0.789187 24.2227 2.3373 26.0995 4.60921C27.9763 6.88112 29.0043 9.73525 29.007 12.6821C29.0073 15.7544 27.8931 18.7224 25.8711 21.0355C23.8491 23.3485 21.0566 24.8495 18.0119 25.2599C18.0904 25.0242 18.1297 24.774 18.1297 24.5093ZM16.3169 6.33707C16.3169 6.09667 16.2214 5.86611 16.0514 5.69612C15.8814 5.52613 15.6508 5.43064 15.4104 5.43064C15.17 5.43064 14.9395 5.52613 14.7695 5.69612C14.5995 5.86611 14.504 6.09667 14.504 6.33707V13.5886C14.504 13.829 14.5995 14.0595 14.7695 14.2295C14.9395 14.3995 15.17 14.495 15.4104 14.495H20.849C21.0894 14.495 21.32 14.3995 21.49 14.2295C21.66 14.0595 21.7555 13.829 21.7555 13.5886C21.7555 13.3482 21.66 13.1176 21.49 12.9476C21.32 12.7776 21.0894 12.6821 20.849 12.6821H16.3169V6.33707ZM7.03131 9.56761L7.66219 11.5092C7.85784 12.0998 8.18893 12.6364 8.62899 13.0761C9.06906 13.5159 9.60589 13.8466 10.1966 14.0418L12.14 14.6727L12.1799 14.6835C12.3296 14.7363 12.4593 14.8342 12.5511 14.9637C12.6428 15.0933 12.6921 15.2481 12.6921 15.4069C12.6921 15.5656 12.6428 15.7205 12.5511 15.85C12.4593 15.9796 12.3296 16.0775 12.1799 16.1302L10.2365 16.7611C9.64544 16.9561 9.10824 17.2867 8.66785 17.7264C8.22746 18.1662 7.89609 18.7029 7.70026 19.2937L7.06938 21.2335C7.01666 21.3832 6.91877 21.5129 6.78921 21.6047C6.65965 21.6964 6.5048 21.7457 6.34604 21.7457C6.18729 21.7457 6.03244 21.6964 5.90288 21.6047C5.77332 21.5129 5.67542 21.3832 5.62271 21.2335L4.99183 19.2937C4.76512 18.6069 4.35592 17.9946 3.80802 17.5225C3.41181 17.1785 2.95162 16.9161 2.4538 16.7502L0.512216 16.1193C0.362466 16.0666 0.232768 15.9687 0.141021 15.8392C0.0492734 15.7096 0 15.5548 0 15.396C0 15.2372 0.0492734 15.0824 0.141021 14.9528C0.232768 14.8233 0.362466 14.7254 0.512216 14.6727L2.45562 14.0418C3.03927 13.8415 3.5685 13.5086 4.00166 13.0691C4.43483 12.6297 4.76012 12.0957 4.95194 11.5092L5.58282 9.56943C5.63516 9.41905 5.733 9.28869 5.86278 9.19644C5.99256 9.10419 6.14784 9.05462 6.30707 9.05462C6.46629 9.05462 6.62157 9.10419 6.75135 9.19644C6.88113 9.28869 6.97898 9.41723 7.03131 9.56761ZM15.9235 23.9473L14.5348 23.4977C14.1136 23.357 13.7309 23.1204 13.4169 22.8064C13.1029 22.4924 12.8662 22.1097 12.7255 21.6885L12.2723 20.3016C12.2348 20.1946 12.1649 20.1018 12.0724 20.0361C11.9798 19.9705 11.8691 19.9352 11.7557 19.9352C11.6422 19.9352 11.5315 19.9705 11.439 20.0361C11.3464 20.1018 11.2765 20.1946 11.239 20.3016L10.7894 21.6885C10.6513 22.107 10.4184 22.4879 10.109 22.8017C9.79965 23.1155 9.42201 23.3537 9.00553 23.4977L7.61868 23.9473C7.51242 23.9857 7.42057 24.0559 7.35564 24.1483C7.29072 24.2408 7.25589 24.351 7.25589 24.464C7.25589 24.577 7.29072 24.6872 7.35564 24.7797C7.42057 24.8721 7.51242 24.9423 7.61868 24.9807L9.00553 25.4321C9.42816 25.573 9.81208 25.8106 10.1268 26.1259C10.4415 26.4413 10.6783 26.8257 10.8184 27.2486L11.268 28.6336C11.3055 28.7407 11.3754 28.8335 11.468 28.8991C11.5605 28.9647 11.6712 29 11.7847 29C11.8981 29 12.0088 28.9647 12.1014 28.8991C12.1939 28.8335 12.2638 28.7407 12.3013 28.6336L12.7527 27.2486C12.8934 26.8269 13.1302 26.4437 13.4446 26.1293C13.7589 25.815 14.1421 25.5781 14.5638 25.4375L15.9507 24.9879C16.0577 24.9504 16.1505 24.8805 16.2161 24.7879C16.2818 24.6954 16.317 24.5847 16.317 24.4713C16.317 24.3578 16.2818 24.2471 16.2161 24.1546C16.1505 24.062 16.0577 23.9921 15.9507 23.9546L15.9235 23.9473Z" fill="#12B7A1"/>
</svg>
