<svg width="1824" height="400" viewBox="0 0 1824 400" fill="none" xmlns="http://www.w3.org/2000/svg">
<g clip-path="url(#clip0_3_2501)">
<mask id="path-1-inside-1_3_2501" fill="white">
<path d="M0 0H1824V400H0V0Z"/>
</mask>
<path d="M0 0H1824V400H0V0Z" fill="white"/>
<g clip-path="url(#clip1_3_2501)">
<path d="M-16 138.273C-16 138.273 100.893 85.0789 239.031 85.0789C377.17 85.0789 375.04 179.262 519.543 179.262C664.046 179.262 702.3 84 800.055 84C897.809 84 942.451 200 1027.45 200C1112.46 200 1133.7 115.384 1201.72 115.384C1269.73 115.384 1276.66 156.591 1333.74 156.591C1390.82 156.591 1422.73 99.9956 1488.62 99.9956C1554.5 99.9956 1579.98 180.348 1688.36 180.348C1762.13 180.348 1792.71 97.1186 1932 100.318" stroke="url(#paint0_linear_3_2501)" stroke-width="1.5" stroke-miterlimit="10"/>
<path d="M-16 185.727C-16 185.727 100.893 238.921 239.031 238.921C377.17 238.921 375.04 144.738 519.543 144.738C664.046 144.738 702.3 240 800.055 240C897.809 240 942.451 124 1027.45 124C1112.46 124 1133.7 208.616 1201.72 208.616C1269.73 208.616 1276.66 167.409 1333.74 167.409C1390.82 167.409 1422.73 224.004 1488.62 224.004C1554.5 224.004 1579.98 143.652 1688.36 143.652C1762.13 143.652 1792.71 226.881 1932 223.682" stroke="url(#paint1_linear_3_2501)" stroke-width="1.5" stroke-miterlimit="10"/>
<path d="M1932 155.304C1932 155.304 1815.11 116.787 1676.99 116.787C1538.88 116.787 1540.98 184.973 1396.46 184.973C1251.93 184.973 1213.7 116 1115.94 116C1018.19 116 973.549 200 888.546 200C803.543 200 782.388 138.736 714.282 138.736C646.175 138.736 639.358 168.541 582.259 168.541C525.16 168.541 493.27 127.561 427.406 127.561C361.541 127.561 336.016 185.765 227.639 185.765C153.87 185.765 123.293 125.477 -16 127.788" stroke="url(#paint2_linear_3_2501)" stroke-width="1.5" stroke-miterlimit="10"/>
<path d="M1932 168.696C1932 168.696 1815.11 207.213 1676.99 207.213C1538.88 207.213 1540.98 139.027 1396.46 139.027C1251.93 139.027 1213.7 208 1115.94 208C1018.19 208 973.549 124 888.546 124C803.543 124 782.388 185.264 714.282 185.264C646.175 185.264 639.358 155.459 582.259 155.459C525.16 155.459 493.27 196.439 427.406 196.439C361.541 196.439 336.016 138.235 227.639 138.235C153.87 138.235 123.293 198.523 -16 196.212" stroke="url(#paint3_linear_3_2501)" stroke-width="1.5" stroke-miterlimit="10"/>
</g>
<g clip-path="url(#clip2_3_2501)">
<path d="M1824 138.273C1824 138.273 1707.11 85.0789 1568.97 85.0789C1430.83 85.0789 1432.96 179.262 1288.46 179.262C1143.95 179.262 1105.7 84 1007.95 84C910.191 84 865.549 200 780.546 200C695.543 200 674.298 115.384 606.282 115.384C538.266 115.384 531.335 156.591 474.259 156.591C417.183 156.591 385.27 99.9956 319.383 99.9956C253.496 99.9956 228.016 180.348 119.639 180.348C45.8698 180.348 15.2933 97.1186 -124 100.318" stroke="url(#paint4_linear_3_2501)" stroke-width="1.5" stroke-miterlimit="10"/>
<path d="M1824 185.727C1824 185.727 1707.11 238.921 1568.97 238.921C1430.83 238.921 1432.96 144.738 1288.46 144.738C1143.95 144.738 1105.7 240 1007.95 240C910.191 240 865.549 124 780.546 124C695.543 124 674.298 208.616 606.282 208.616C538.266 208.616 531.335 167.409 474.259 167.409C417.183 167.409 385.27 224.004 319.383 224.004C253.496 224.004 228.016 143.652 119.639 143.652C45.8698 143.652 15.2933 226.881 -124 223.682" stroke="url(#paint5_linear_3_2501)" stroke-width="1.5" stroke-miterlimit="10"/>
<path d="M-124 155.304C-124 155.304 -7.10681 116.787 131.009 116.787C269.124 116.787 267.018 184.973 411.543 184.973C556.068 184.973 594.301 116 692.055 116C789.809 116 834.451 200 919.454 200C1004.46 200 1025.61 138.736 1093.72 138.736C1161.82 138.736 1168.64 168.541 1225.74 168.541C1282.84 168.541 1314.73 127.561 1380.59 127.561C1446.46 127.561 1471.98 185.765 1580.36 185.765C1654.13 185.765 1684.71 125.477 1824 127.788" stroke="url(#paint6_linear_3_2501)" stroke-width="1.5" stroke-miterlimit="10"/>
<path d="M-124 168.696C-124 168.696 -7.10681 207.213 131.009 207.213C269.124 207.213 267.018 139.027 411.543 139.027C556.068 139.027 594.301 208 692.055 208C789.809 208 834.451 124 919.454 124C1004.46 124 1025.61 185.264 1093.72 185.264C1161.82 185.264 1168.64 155.459 1225.74 155.459C1282.84 155.459 1314.73 196.439 1380.59 196.439C1446.46 196.439 1471.98 138.235 1580.36 138.235C1654.13 138.235 1684.71 198.523 1824 196.212" stroke="url(#paint7_linear_3_2501)" stroke-width="1.5" stroke-miterlimit="10"/>
</g>
<path d="M0 0H1824V400H0V0Z" fill="url(#paint8_radial_3_2501)"/>
<g filter="url(#filter0_f_3_2501)">
<ellipse cx="912" cy="156" rx="406" ry="90" fill="#C7EDFF" fill-opacity="0.8"/>
</g>
<path d="M1508.03 221.33C1529.31 214.819 1542.46 187.353 1537.4 159.982C1532.34 132.612 1510.98 115.701 1489.7 122.212C1468.42 128.722 1455.27 156.188 1460.33 183.559C1465.39 210.93 1486.75 227.84 1508.03 221.33Z" fill="url(#paint9_radial_3_2501)" style="mix-blend-mode:color-dodge"/>
<path d="M308.031 279.33C329.313 272.819 342.462 245.353 337.399 217.982C332.337 190.612 310.981 173.701 289.699 180.212C268.417 186.722 255.268 214.188 260.33 241.559C265.392 268.93 286.749 285.84 308.031 279.33Z" fill="url(#paint10_radial_3_2501)" style="mix-blend-mode:color-dodge"/>
<path d="M1702.87 147.33C1724.15 140.819 1737.3 113.353 1732.24 85.9823C1727.17 58.6116 1705.82 41.7011 1684.53 48.2116C1663.25 54.7222 1650.1 82.1883 1655.17 109.559C1660.23 136.93 1681.58 153.84 1702.87 147.33Z" fill="url(#paint11_radial_3_2501)" style="mix-blend-mode:color-dodge"/>
<path d="M1696.04 162.438C1701.48 160.774 1704.84 153.753 1703.55 146.758C1702.26 139.762 1696.8 135.439 1691.36 137.103C1685.92 138.767 1682.56 145.788 1683.85 152.784C1685.14 159.78 1690.6 164.102 1696.04 162.438Z" fill="url(#paint12_radial_3_2501)" style="mix-blend-mode:color-dodge"/>
<path d="M1518.04 246.438C1523.48 244.774 1526.84 237.753 1525.55 230.758C1524.26 223.762 1518.8 219.439 1513.36 221.103C1507.92 222.767 1504.56 229.788 1505.85 236.784C1507.14 243.78 1512.6 248.102 1518.04 246.438Z" fill="url(#paint13_radial_3_2501)" style="mix-blend-mode:color-dodge"/>
<path d="M1560.04 96.4379C1565.48 94.7738 1568.84 87.7535 1567.55 80.7575C1566.26 73.7616 1560.8 69.4393 1555.36 71.1034C1549.92 72.7674 1546.56 79.7878 1547.85 86.7837C1549.14 93.7797 1554.6 98.102 1560.04 96.4379Z" fill="url(#paint14_radial_3_2501)" style="mix-blend-mode:color-dodge"/>
<path d="M614.535 108.321C619.975 106.657 623.336 99.637 622.042 92.6411C620.748 85.6451 615.289 81.3228 609.849 82.9869C604.41 84.651 601.049 91.6713 602.343 98.6673C603.637 105.663 609.095 109.986 614.535 108.321Z" fill="url(#paint15_radial_3_2501)" style="mix-blend-mode:color-dodge"/>
<path d="M676.811 180.62C687.532 177.34 694.156 163.504 691.605 149.716C689.055 135.928 678.297 127.409 667.576 130.689C656.855 133.968 650.231 147.804 652.781 161.593C655.332 175.381 666.09 183.899 676.811 180.62Z" fill="url(#paint16_radial_3_2501)" style="mix-blend-mode:color-dodge"/>
<path d="M776.811 100.62C787.532 97.34 794.156 83.5038 791.605 69.7157C789.055 55.9275 778.297 47.4088 767.576 50.6885C756.855 53.9682 750.231 67.8044 752.781 81.5925C755.332 95.3806 766.09 103.899 776.811 100.62Z" fill="url(#paint17_radial_3_2501)" style="mix-blend-mode:color-dodge"/>
<path d="M98.8109 168.62C109.532 165.34 116.156 151.504 113.605 137.716C111.055 123.928 100.297 115.409 89.5761 118.689C78.8551 121.968 72.2314 135.804 74.7815 149.593C77.3316 163.381 88.09 171.899 98.8109 168.62Z" fill="url(#paint18_radial_3_2501)" style="mix-blend-mode:color-dodge"/>
<path d="M1076.81 300.62C1087.53 297.34 1094.16 283.504 1091.61 269.716C1089.06 255.927 1078.3 247.409 1067.58 250.688C1056.86 253.968 1050.23 267.804 1052.78 281.592C1055.33 295.381 1066.09 303.899 1076.81 300.62Z" fill="url(#paint19_radial_3_2501)" style="mix-blend-mode:color-dodge"/>
<path d="M214.811 110.62C225.532 107.34 232.156 93.5038 229.605 79.7157C227.055 65.9275 216.297 57.4088 205.576 60.6885C194.855 63.9682 188.231 77.8044 190.781 91.5925C193.332 105.381 204.09 113.899 214.811 110.62Z" fill="url(#paint20_radial_3_2501)" style="mix-blend-mode:color-dodge"/>
<path d="M1282.99 87.015C1289.85 84.9147 1294.09 76.054 1292.46 67.2242C1290.83 58.3944 1283.94 52.939 1277.07 55.0393C1270.21 57.1396 1265.96 66.0003 1267.6 74.8301C1269.23 83.6599 1276.12 89.1153 1282.99 87.015Z" fill="url(#paint21_radial_3_2501)" style="mix-blend-mode:color-dodge"/>
<path d="M458.345 187.015C465.211 184.915 469.453 176.054 467.82 167.224C466.187 158.394 459.297 152.939 452.431 155.039C445.566 157.14 441.324 166 442.957 174.83C444.59 183.66 451.48 189.115 458.345 187.015Z" fill="url(#paint22_radial_3_2501)" style="mix-blend-mode:color-dodge"/>
<path d="M438.345 25.015C445.211 22.9147 449.453 14.054 447.82 5.22421C446.187 -3.60561 439.297 -9.06096 432.431 -6.96066C425.566 -4.86035 421.324 4.00027 422.957 12.8301C424.59 21.6599 431.48 27.1153 438.345 25.015Z" fill="url(#paint23_radial_3_2501)" style="mix-blend-mode:color-dodge"/>
<path d="M1074.54 96.205C1079.97 94.5409 1083.34 87.5206 1082.04 80.5246C1080.75 73.5287 1075.29 69.2064 1069.85 70.8704C1064.41 72.5345 1061.05 79.5549 1062.34 86.5508C1063.64 93.5468 1069.1 97.8691 1074.54 96.205Z" fill="url(#paint24_radial_3_2501)" style="mix-blend-mode:color-dodge"/>
</g>
<path d="M1824 0H1822V400H1824H1826V0H1824ZM0 400H2V0H0H-2V400H0Z" fill="#E0E0E0" mask="url(#path-1-inside-1_3_2501)"/>
<defs>
<filter id="filter0_f_3_2501" x="418" y="-22" width="988" height="356" filterUnits="userSpaceOnUse" color-interpolation-filters="sRGB">
<feFlood flood-opacity="0" result="BackgroundImageFix"/>
<feBlend mode="normal" in="SourceGraphic" in2="BackgroundImageFix" result="shape"/>
<feGaussianBlur stdDeviation="44" result="effect1_foregroundBlur_3_2501"/>
</filter>
<linearGradient id="paint0_linear_3_2501" x1="-16.6795" y1="142.004" x2="1932.05" y2="142.004" gradientUnits="userSpaceOnUse">
<stop stop-color="#179AD9" stop-opacity="0.7"/>
<stop offset="0.03" stop-color="#179AD9" stop-opacity="0.67"/>
<stop offset="0.07" stop-color="#179AD9" stop-opacity="0.6"/>
<stop offset="0.11" stop-color="#179AD9" stop-opacity="0.49"/>
<stop offset="0.16" stop-color="#179AD9" stop-opacity="0.33"/>
<stop offset="0.21" stop-color="#179AD9" stop-opacity="0.12"/>
<stop offset="0.24" stop-color="#179AD9" stop-opacity="0"/>
<stop offset="0.67" stop-color="#179AD9" stop-opacity="0.4"/>
<stop offset="0.72" stop-color="#179AD9" stop-opacity="0.37"/>
<stop offset="0.8" stop-color="#179AD9" stop-opacity="0.3"/>
<stop offset="0.88" stop-color="#179AD9" stop-opacity="0.19"/>
<stop offset="0.98" stop-color="#36136D" stop-opacity="0.03"/>
<stop offset="1" stop-color="#330061" stop-opacity="0"/>
</linearGradient>
<linearGradient id="paint1_linear_3_2501" x1="-16.6795" y1="181.996" x2="1932.05" y2="181.996" gradientUnits="userSpaceOnUse">
<stop stop-color="#179AD9" stop-opacity="0.7"/>
<stop offset="0.03" stop-color="#179AD9" stop-opacity="0.67"/>
<stop offset="0.07" stop-color="#179AD9" stop-opacity="0.6"/>
<stop offset="0.11" stop-color="#179AD9" stop-opacity="0.49"/>
<stop offset="0.16" stop-color="#179AD9" stop-opacity="0.33"/>
<stop offset="0.21" stop-color="#179AD9" stop-opacity="0.12"/>
<stop offset="0.24" stop-color="#179AD9" stop-opacity="0"/>
<stop offset="0.67" stop-color="#179AD9" stop-opacity="0.4"/>
<stop offset="0.72" stop-color="#179AD9" stop-opacity="0.37"/>
<stop offset="0.8" stop-color="#179AD9" stop-opacity="0.3"/>
<stop offset="0.88" stop-color="#179AD9" stop-opacity="0.19"/>
<stop offset="0.98" stop-color="#36136D" stop-opacity="0.03"/>
<stop offset="1" stop-color="#330061" stop-opacity="0"/>
</linearGradient>
<linearGradient id="paint2_linear_3_2501" x1="1932.68" y1="158" x2="-16.0453" y2="158" gradientUnits="userSpaceOnUse">
<stop stop-color="#24A1DD" stop-opacity="0.7"/>
<stop offset="0.03" stop-color="#24A1DD" stop-opacity="0.67"/>
<stop offset="0.07" stop-color="#24A1DD" stop-opacity="0.6"/>
<stop offset="0.11" stop-color="#24A1DD" stop-opacity="0.49"/>
<stop offset="0.16" stop-color="#24A1DD" stop-opacity="0.33"/>
<stop offset="0.21" stop-color="#24A1DD" stop-opacity="0.12"/>
<stop offset="0.24" stop-color="#24A1DD" stop-opacity="0"/>
<stop offset="0.67" stop-color="#24A1DD" stop-opacity="0.4"/>
<stop offset="0.72" stop-color="#24A1DD" stop-opacity="0.37"/>
<stop offset="0.8" stop-color="#24A1DD" stop-opacity="0.3"/>
<stop offset="0.88" stop-color="#24A1DD" stop-opacity="0.19"/>
<stop offset="0.98" stop-color="#36136D" stop-opacity="0.03"/>
<stop offset="1" stop-color="#330061" stop-opacity="0"/>
</linearGradient>
<linearGradient id="paint3_linear_3_2501" x1="1932.68" y1="166" x2="-16.0453" y2="166" gradientUnits="userSpaceOnUse">
<stop stop-color="#24A1DD" stop-opacity="0.7"/>
<stop offset="0.03" stop-color="#24A1DD" stop-opacity="0.67"/>
<stop offset="0.07" stop-color="#24A1DD" stop-opacity="0.6"/>
<stop offset="0.11" stop-color="#24A1DD" stop-opacity="0.49"/>
<stop offset="0.16" stop-color="#24A1DD" stop-opacity="0.33"/>
<stop offset="0.21" stop-color="#24A1DD" stop-opacity="0.12"/>
<stop offset="0.24" stop-color="#24A1DD" stop-opacity="0"/>
<stop offset="0.67" stop-color="#24A1DD" stop-opacity="0.4"/>
<stop offset="0.72" stop-color="#24A1DD" stop-opacity="0.37"/>
<stop offset="0.8" stop-color="#24A1DD" stop-opacity="0.3"/>
<stop offset="0.88" stop-color="#24A1DD" stop-opacity="0.19"/>
<stop offset="0.98" stop-color="#36136D" stop-opacity="0.03"/>
<stop offset="1" stop-color="#330061" stop-opacity="0"/>
</linearGradient>
<linearGradient id="paint4_linear_3_2501" x1="1824.68" y1="142.004" x2="-124.045" y2="142.004" gradientUnits="userSpaceOnUse">
<stop stop-color="#179AD9" stop-opacity="0.7"/>
<stop offset="0.03" stop-color="#179AD9" stop-opacity="0.67"/>
<stop offset="0.07" stop-color="#179AD9" stop-opacity="0.6"/>
<stop offset="0.11" stop-color="#179AD9" stop-opacity="0.49"/>
<stop offset="0.16" stop-color="#179AD9" stop-opacity="0.33"/>
<stop offset="0.21" stop-color="#179AD9" stop-opacity="0.12"/>
<stop offset="0.24" stop-color="#179AD9" stop-opacity="0"/>
<stop offset="0.67" stop-color="#179AD9" stop-opacity="0.4"/>
<stop offset="0.72" stop-color="#179AD9" stop-opacity="0.37"/>
<stop offset="0.8" stop-color="#179AD9" stop-opacity="0.3"/>
<stop offset="0.88" stop-color="#179AD9" stop-opacity="0.19"/>
<stop offset="0.98" stop-color="#36136D" stop-opacity="0.03"/>
<stop offset="1" stop-color="#330061" stop-opacity="0"/>
</linearGradient>
<linearGradient id="paint5_linear_3_2501" x1="1824.68" y1="181.996" x2="-124.045" y2="181.996" gradientUnits="userSpaceOnUse">
<stop stop-color="#179AD9" stop-opacity="0.7"/>
<stop offset="0.03" stop-color="#179AD9" stop-opacity="0.67"/>
<stop offset="0.07" stop-color="#179AD9" stop-opacity="0.6"/>
<stop offset="0.11" stop-color="#179AD9" stop-opacity="0.49"/>
<stop offset="0.16" stop-color="#179AD9" stop-opacity="0.33"/>
<stop offset="0.21" stop-color="#179AD9" stop-opacity="0.12"/>
<stop offset="0.24" stop-color="#179AD9" stop-opacity="0"/>
<stop offset="0.67" stop-color="#179AD9" stop-opacity="0.4"/>
<stop offset="0.72" stop-color="#179AD9" stop-opacity="0.37"/>
<stop offset="0.8" stop-color="#179AD9" stop-opacity="0.3"/>
<stop offset="0.88" stop-color="#179AD9" stop-opacity="0.19"/>
<stop offset="0.98" stop-color="#36136D" stop-opacity="0.03"/>
<stop offset="1" stop-color="#330061" stop-opacity="0"/>
</linearGradient>
<linearGradient id="paint6_linear_3_2501" x1="-124.679" y1="158" x2="1824.05" y2="158" gradientUnits="userSpaceOnUse">
<stop stop-color="#24A1DD" stop-opacity="0.7"/>
<stop offset="0.03" stop-color="#24A1DD" stop-opacity="0.67"/>
<stop offset="0.07" stop-color="#24A1DD" stop-opacity="0.6"/>
<stop offset="0.11" stop-color="#24A1DD" stop-opacity="0.49"/>
<stop offset="0.16" stop-color="#24A1DD" stop-opacity="0.33"/>
<stop offset="0.21" stop-color="#24A1DD" stop-opacity="0.12"/>
<stop offset="0.24" stop-color="#24A1DD" stop-opacity="0"/>
<stop offset="0.67" stop-color="#24A1DD" stop-opacity="0.4"/>
<stop offset="0.72" stop-color="#24A1DD" stop-opacity="0.37"/>
<stop offset="0.8" stop-color="#24A1DD" stop-opacity="0.3"/>
<stop offset="0.88" stop-color="#24A1DD" stop-opacity="0.19"/>
<stop offset="0.98" stop-color="#36136D" stop-opacity="0.03"/>
<stop offset="1" stop-color="#330061" stop-opacity="0"/>
</linearGradient>
<linearGradient id="paint7_linear_3_2501" x1="-124.679" y1="166" x2="1824.05" y2="166" gradientUnits="userSpaceOnUse">
<stop stop-color="#24A1DD" stop-opacity="0.7"/>
<stop offset="0.03" stop-color="#24A1DD" stop-opacity="0.67"/>
<stop offset="0.07" stop-color="#24A1DD" stop-opacity="0.6"/>
<stop offset="0.11" stop-color="#24A1DD" stop-opacity="0.49"/>
<stop offset="0.16" stop-color="#24A1DD" stop-opacity="0.33"/>
<stop offset="0.21" stop-color="#24A1DD" stop-opacity="0.12"/>
<stop offset="0.24" stop-color="#24A1DD" stop-opacity="0"/>
<stop offset="0.67" stop-color="#24A1DD" stop-opacity="0.4"/>
<stop offset="0.72" stop-color="#24A1DD" stop-opacity="0.37"/>
<stop offset="0.8" stop-color="#24A1DD" stop-opacity="0.3"/>
<stop offset="0.88" stop-color="#24A1DD" stop-opacity="0.19"/>
<stop offset="0.98" stop-color="#36136D" stop-opacity="0.03"/>
<stop offset="1" stop-color="#330061" stop-opacity="0"/>
</linearGradient>
<radialGradient id="paint8_radial_3_2501" cx="0" cy="0" r="1" gradientTransform="matrix(1.72906e-05 -462.049 1123.87 31.1494 912 -66)" gradientUnits="userSpaceOnUse">
<stop stop-color="#24A1DD" stop-opacity="0.41"/>
<stop offset="1" stop-color="#24A1DD" stop-opacity="0"/>
</radialGradient>
<radialGradient id="paint9_radial_3_2501" cx="0" cy="0" r="1" gradientUnits="userSpaceOnUse" gradientTransform="translate(1498.91 171.69) scale(39.6097 50.9418)">
<stop stop-color="#F7F7F7"/>
<stop offset="0.01" stop-color="#C9C9C9"/>
<stop offset="0.03" stop-color="#9E9E9E"/>
<stop offset="0.04" stop-color="#787878"/>
<stop offset="0.06" stop-color="#575757"/>
<stop offset="0.08" stop-color="#3C3C3C"/>
<stop offset="0.1" stop-color="#262626"/>
<stop offset="0.12" stop-color="#151515"/>
<stop offset="0.15" stop-color="#090909"/>
<stop offset="0.2" stop-color="#020202"/>
<stop offset="0.31"/>
</radialGradient>
<radialGradient id="paint10_radial_3_2501" cx="0" cy="0" r="1" gradientUnits="userSpaceOnUse" gradientTransform="translate(298.913 229.69) scale(39.6097 50.9418)">
<stop stop-color="#F7F7F7"/>
<stop offset="0.01" stop-color="#C9C9C9"/>
<stop offset="0.03" stop-color="#9E9E9E"/>
<stop offset="0.04" stop-color="#787878"/>
<stop offset="0.06" stop-color="#575757"/>
<stop offset="0.08" stop-color="#3C3C3C"/>
<stop offset="0.1" stop-color="#262626"/>
<stop offset="0.12" stop-color="#151515"/>
<stop offset="0.15" stop-color="#090909"/>
<stop offset="0.2" stop-color="#020202"/>
<stop offset="0.31"/>
</radialGradient>
<radialGradient id="paint11_radial_3_2501" cx="0" cy="0" r="1" gradientUnits="userSpaceOnUse" gradientTransform="translate(1693.75 97.6896) scale(39.6097 50.9418)">
<stop stop-color="#F7F7F7"/>
<stop offset="0.01" stop-color="#C9C9C9"/>
<stop offset="0.03" stop-color="#9E9E9E"/>
<stop offset="0.04" stop-color="#787878"/>
<stop offset="0.06" stop-color="#575757"/>
<stop offset="0.08" stop-color="#3C3C3C"/>
<stop offset="0.1" stop-color="#262626"/>
<stop offset="0.12" stop-color="#151515"/>
<stop offset="0.15" stop-color="#090909"/>
<stop offset="0.2" stop-color="#020202"/>
<stop offset="0.31"/>
</radialGradient>
<radialGradient id="paint12_radial_3_2501" cx="0" cy="0" r="1" gradientUnits="userSpaceOnUse" gradientTransform="translate(1693.71 149.75) scale(10.1242 13.0207)">
<stop stop-color="#F7F7F7"/>
<stop offset="0.01" stop-color="#C9C9C9"/>
<stop offset="0.03" stop-color="#9E9E9E"/>
<stop offset="0.04" stop-color="#787878"/>
<stop offset="0.06" stop-color="#575757"/>
<stop offset="0.08" stop-color="#3C3C3C"/>
<stop offset="0.1" stop-color="#262626"/>
<stop offset="0.12" stop-color="#151515"/>
<stop offset="0.15" stop-color="#090909"/>
<stop offset="0.2" stop-color="#020202"/>
<stop offset="0.31"/>
</radialGradient>
<radialGradient id="paint13_radial_3_2501" cx="0" cy="0" r="1" gradientUnits="userSpaceOnUse" gradientTransform="translate(1515.71 233.75) scale(10.1242 13.0207)">
<stop stop-color="#F7F7F7"/>
<stop offset="0.01" stop-color="#C9C9C9"/>
<stop offset="0.03" stop-color="#9E9E9E"/>
<stop offset="0.04" stop-color="#787878"/>
<stop offset="0.06" stop-color="#575757"/>
<stop offset="0.08" stop-color="#3C3C3C"/>
<stop offset="0.1" stop-color="#262626"/>
<stop offset="0.12" stop-color="#151515"/>
<stop offset="0.15" stop-color="#090909"/>
<stop offset="0.2" stop-color="#020202"/>
<stop offset="0.31"/>
</radialGradient>
<radialGradient id="paint14_radial_3_2501" cx="0" cy="0" r="1" gradientUnits="userSpaceOnUse" gradientTransform="translate(1557.71 83.7499) scale(10.1242 13.0207)">
<stop stop-color="#F7F7F7"/>
<stop offset="0.01" stop-color="#C9C9C9"/>
<stop offset="0.03" stop-color="#9E9E9E"/>
<stop offset="0.04" stop-color="#787878"/>
<stop offset="0.06" stop-color="#575757"/>
<stop offset="0.08" stop-color="#3C3C3C"/>
<stop offset="0.1" stop-color="#262626"/>
<stop offset="0.12" stop-color="#151515"/>
<stop offset="0.15" stop-color="#090909"/>
<stop offset="0.2" stop-color="#020202"/>
<stop offset="0.31"/>
</radialGradient>
<radialGradient id="paint15_radial_3_2501" cx="0" cy="0" r="1" gradientUnits="userSpaceOnUse" gradientTransform="translate(612.205 95.6334) scale(10.1242 13.0207)">
<stop stop-color="#F7F7F7"/>
<stop offset="0.01" stop-color="#C9C9C9"/>
<stop offset="0.03" stop-color="#9E9E9E"/>
<stop offset="0.04" stop-color="#787878"/>
<stop offset="0.06" stop-color="#575757"/>
<stop offset="0.08" stop-color="#3C3C3C"/>
<stop offset="0.1" stop-color="#262626"/>
<stop offset="0.12" stop-color="#151515"/>
<stop offset="0.15" stop-color="#090909"/>
<stop offset="0.2" stop-color="#020202"/>
<stop offset="0.31"/>
</radialGradient>
<radialGradient id="paint16_radial_3_2501" cx="0" cy="0" r="1" gradientUnits="userSpaceOnUse" gradientTransform="translate(672.218 155.613) scale(19.9536 25.6621)">
<stop stop-color="#F7F7F7"/>
<stop offset="0.01" stop-color="#C9C9C9"/>
<stop offset="0.03" stop-color="#9E9E9E"/>
<stop offset="0.04" stop-color="#787878"/>
<stop offset="0.06" stop-color="#575757"/>
<stop offset="0.08" stop-color="#3C3C3C"/>
<stop offset="0.1" stop-color="#262626"/>
<stop offset="0.12" stop-color="#151515"/>
<stop offset="0.15" stop-color="#090909"/>
<stop offset="0.2" stop-color="#020202"/>
<stop offset="0.31"/>
</radialGradient>
<radialGradient id="paint17_radial_3_2501" cx="0" cy="0" r="1" gradientUnits="userSpaceOnUse" gradientTransform="translate(772.218 75.6133) scale(19.9536 25.6621)">
<stop stop-color="#F7F7F7"/>
<stop offset="0.01" stop-color="#C9C9C9"/>
<stop offset="0.03" stop-color="#9E9E9E"/>
<stop offset="0.04" stop-color="#787878"/>
<stop offset="0.06" stop-color="#575757"/>
<stop offset="0.08" stop-color="#3C3C3C"/>
<stop offset="0.1" stop-color="#262626"/>
<stop offset="0.12" stop-color="#151515"/>
<stop offset="0.15" stop-color="#090909"/>
<stop offset="0.2" stop-color="#020202"/>
<stop offset="0.31"/>
</radialGradient>
<radialGradient id="paint18_radial_3_2501" cx="0" cy="0" r="1" gradientUnits="userSpaceOnUse" gradientTransform="translate(94.2179 143.613) scale(19.9536 25.6621)">
<stop stop-color="#F7F7F7"/>
<stop offset="0.01" stop-color="#C9C9C9"/>
<stop offset="0.03" stop-color="#9E9E9E"/>
<stop offset="0.04" stop-color="#787878"/>
<stop offset="0.06" stop-color="#575757"/>
<stop offset="0.08" stop-color="#3C3C3C"/>
<stop offset="0.1" stop-color="#262626"/>
<stop offset="0.12" stop-color="#151515"/>
<stop offset="0.15" stop-color="#090909"/>
<stop offset="0.2" stop-color="#020202"/>
<stop offset="0.31"/>
</radialGradient>
<radialGradient id="paint19_radial_3_2501" cx="0" cy="0" r="1" gradientUnits="userSpaceOnUse" gradientTransform="translate(1072.22 275.613) scale(19.9536 25.6621)">
<stop stop-color="#F7F7F7"/>
<stop offset="0.01" stop-color="#C9C9C9"/>
<stop offset="0.03" stop-color="#9E9E9E"/>
<stop offset="0.04" stop-color="#787878"/>
<stop offset="0.06" stop-color="#575757"/>
<stop offset="0.08" stop-color="#3C3C3C"/>
<stop offset="0.1" stop-color="#262626"/>
<stop offset="0.12" stop-color="#151515"/>
<stop offset="0.15" stop-color="#090909"/>
<stop offset="0.2" stop-color="#020202"/>
<stop offset="0.31"/>
</radialGradient>
<radialGradient id="paint20_radial_3_2501" cx="0" cy="0" r="1" gradientUnits="userSpaceOnUse" gradientTransform="translate(210.218 85.6133) scale(19.9536 25.6621)">
<stop stop-color="#F7F7F7"/>
<stop offset="0.01" stop-color="#C9C9C9"/>
<stop offset="0.03" stop-color="#9E9E9E"/>
<stop offset="0.04" stop-color="#787878"/>
<stop offset="0.06" stop-color="#575757"/>
<stop offset="0.08" stop-color="#3C3C3C"/>
<stop offset="0.1" stop-color="#262626"/>
<stop offset="0.12" stop-color="#151515"/>
<stop offset="0.15" stop-color="#090909"/>
<stop offset="0.2" stop-color="#020202"/>
<stop offset="0.31"/>
</radialGradient>
<radialGradient id="paint21_radial_3_2501" cx="0" cy="0" r="1" gradientUnits="userSpaceOnUse" gradientTransform="translate(1280.04 71.001) scale(12.7782 16.4339)">
<stop stop-color="#F7F7F7"/>
<stop offset="0.01" stop-color="#C9C9C9"/>
<stop offset="0.03" stop-color="#9E9E9E"/>
<stop offset="0.04" stop-color="#787878"/>
<stop offset="0.06" stop-color="#575757"/>
<stop offset="0.08" stop-color="#3C3C3C"/>
<stop offset="0.1" stop-color="#262626"/>
<stop offset="0.12" stop-color="#151515"/>
<stop offset="0.15" stop-color="#090909"/>
<stop offset="0.2" stop-color="#020202"/>
<stop offset="0.31"/>
</radialGradient>
<radialGradient id="paint22_radial_3_2501" cx="0" cy="0" r="1" gradientUnits="userSpaceOnUse" gradientTransform="translate(455.404 171.001) scale(12.7782 16.4339)">
<stop stop-color="#F7F7F7"/>
<stop offset="0.01" stop-color="#C9C9C9"/>
<stop offset="0.03" stop-color="#9E9E9E"/>
<stop offset="0.04" stop-color="#787878"/>
<stop offset="0.06" stop-color="#575757"/>
<stop offset="0.08" stop-color="#3C3C3C"/>
<stop offset="0.1" stop-color="#262626"/>
<stop offset="0.12" stop-color="#151515"/>
<stop offset="0.15" stop-color="#090909"/>
<stop offset="0.2" stop-color="#020202"/>
<stop offset="0.31"/>
</radialGradient>
<radialGradient id="paint23_radial_3_2501" cx="0" cy="0" r="1" gradientUnits="userSpaceOnUse" gradientTransform="translate(435.404 9.001) scale(12.7782 16.4339)">
<stop stop-color="#F7F7F7"/>
<stop offset="0.01" stop-color="#C9C9C9"/>
<stop offset="0.03" stop-color="#9E9E9E"/>
<stop offset="0.04" stop-color="#787878"/>
<stop offset="0.06" stop-color="#575757"/>
<stop offset="0.08" stop-color="#3C3C3C"/>
<stop offset="0.1" stop-color="#262626"/>
<stop offset="0.12" stop-color="#151515"/>
<stop offset="0.15" stop-color="#090909"/>
<stop offset="0.2" stop-color="#020202"/>
<stop offset="0.31"/>
</radialGradient>
<radialGradient id="paint24_radial_3_2501" cx="0" cy="0" r="1" gradientUnits="userSpaceOnUse" gradientTransform="translate(1072.2 83.517) scale(10.1242 13.0207)">
<stop stop-color="#F7F7F7"/>
<stop offset="0.01" stop-color="#C9C9C9"/>
<stop offset="0.03" stop-color="#9E9E9E"/>
<stop offset="0.04" stop-color="#787878"/>
<stop offset="0.06" stop-color="#575757"/>
<stop offset="0.08" stop-color="#3C3C3C"/>
<stop offset="0.1" stop-color="#262626"/>
<stop offset="0.12" stop-color="#151515"/>
<stop offset="0.15" stop-color="#090909"/>
<stop offset="0.2" stop-color="#020202"/>
<stop offset="0.31"/>
</radialGradient>
<clipPath id="clip0_3_2501">
<path d="M0 0H1824V400H0V0Z" fill="white"/>
</clipPath>
<clipPath id="clip1_3_2501">
<rect width="784" height="156" fill="white" transform="translate(-16 84)"/>
</clipPath>
<clipPath id="clip2_3_2501">
<rect width="722" height="156" fill="white" transform="matrix(-1 0 0 1 1824 84)"/>
</clipPath>
</defs>
</svg>
