<svg width="1824" height="400" viewBox="0 0 1824 400" fill="none" xmlns="http://www.w3.org/2000/svg">
<g clip-path="url(#clip0_3_2461)">
<mask id="path-1-inside-1_3_2461" fill="white">
<path d="M0 0H1824V400H0V0Z"/>
</mask>
<path d="M0 0H1824V400H0V0Z" fill="white"/>
<g clip-path="url(#clip1_3_2461)">
<path d="M-16 138.273C-16 138.273 100.893 85.0789 239.031 85.0789C377.17 85.0789 375.04 179.262 519.543 179.262C664.046 179.262 702.3 84 800.055 84C897.809 84 942.451 200 1027.45 200C1112.46 200 1133.7 115.384 1201.72 115.384C1269.73 115.384 1276.66 156.591 1333.74 156.591C1390.82 156.591 1422.73 99.9956 1488.62 99.9956C1554.5 99.9956 1579.98 180.348 1688.36 180.348C1762.13 180.348 1792.71 97.1186 1932 100.318" stroke="url(#paint0_linear_3_2461)" stroke-width="1.5" stroke-miterlimit="10"/>
<path d="M-16 185.727C-16 185.727 100.893 238.921 239.031 238.921C377.17 238.921 375.04 144.738 519.543 144.738C664.046 144.738 702.3 240 800.055 240C897.809 240 942.451 124 1027.45 124C1112.46 124 1133.7 208.616 1201.72 208.616C1269.73 208.616 1276.66 167.409 1333.74 167.409C1390.82 167.409 1422.73 224.004 1488.62 224.004C1554.5 224.004 1579.98 143.652 1688.36 143.652C1762.13 143.652 1792.71 226.881 1932 223.682" stroke="url(#paint1_linear_3_2461)" stroke-width="1.5" stroke-miterlimit="10"/>
<path d="M1932 155.304C1932 155.304 1815.11 116.787 1676.99 116.787C1538.88 116.787 1540.98 184.973 1396.46 184.973C1251.93 184.973 1213.7 116 1115.94 116C1018.19 116 973.549 200 888.546 200C803.543 200 782.388 138.736 714.282 138.736C646.175 138.736 639.358 168.541 582.259 168.541C525.16 168.541 493.27 127.561 427.406 127.561C361.541 127.561 336.016 185.765 227.639 185.765C153.87 185.765 123.293 125.477 -16 127.788" stroke="url(#paint2_linear_3_2461)" stroke-width="1.5" stroke-miterlimit="10"/>
<path d="M1932 168.696C1932 168.696 1815.11 207.213 1676.99 207.213C1538.88 207.213 1540.98 139.027 1396.46 139.027C1251.93 139.027 1213.7 208 1115.94 208C1018.19 208 973.549 124 888.546 124C803.543 124 782.388 185.264 714.282 185.264C646.175 185.264 639.358 155.459 582.259 155.459C525.16 155.459 493.27 196.439 427.406 196.439C361.541 196.439 336.016 138.235 227.639 138.235C153.87 138.235 123.293 198.523 -16 196.212" stroke="url(#paint3_linear_3_2461)" stroke-width="1.5" stroke-miterlimit="10"/>
</g>
<g clip-path="url(#clip2_3_2461)">
<path d="M1824 138.273C1824 138.273 1707.11 85.0789 1568.97 85.0789C1430.83 85.0789 1432.96 179.262 1288.46 179.262C1143.95 179.262 1105.7 84 1007.95 84C910.191 84 865.549 200 780.546 200C695.543 200 674.298 115.384 606.282 115.384C538.266 115.384 531.335 156.591 474.259 156.591C417.183 156.591 385.27 99.9956 319.383 99.9956C253.496 99.9956 228.016 180.348 119.639 180.348C45.8698 180.348 15.2933 97.1186 -124 100.318" stroke="url(#paint4_linear_3_2461)" stroke-width="1.5" stroke-miterlimit="10"/>
<path d="M1824 185.727C1824 185.727 1707.11 238.921 1568.97 238.921C1430.83 238.921 1432.96 144.738 1288.46 144.738C1143.95 144.738 1105.7 240 1007.95 240C910.191 240 865.549 124 780.546 124C695.543 124 674.298 208.616 606.282 208.616C538.266 208.616 531.335 167.409 474.259 167.409C417.183 167.409 385.27 224.004 319.383 224.004C253.496 224.004 228.016 143.652 119.639 143.652C45.8698 143.652 15.2933 226.881 -124 223.682" stroke="url(#paint5_linear_3_2461)" stroke-width="1.5" stroke-miterlimit="10"/>
<path d="M-124 155.304C-124 155.304 -7.10681 116.787 131.009 116.787C269.124 116.787 267.018 184.973 411.543 184.973C556.068 184.973 594.301 116 692.055 116C789.809 116 834.451 200 919.454 200C1004.46 200 1025.61 138.736 1093.72 138.736C1161.82 138.736 1168.64 168.541 1225.74 168.541C1282.84 168.541 1314.73 127.561 1380.59 127.561C1446.46 127.561 1471.98 185.765 1580.36 185.765C1654.13 185.765 1684.71 125.477 1824 127.788" stroke="url(#paint6_linear_3_2461)" stroke-width="1.5" stroke-miterlimit="10"/>
<path d="M-124 168.696C-124 168.696 -7.10681 207.213 131.009 207.213C269.124 207.213 267.018 139.027 411.543 139.027C556.068 139.027 594.301 208 692.055 208C789.809 208 834.451 124 919.454 124C1004.46 124 1025.61 185.264 1093.72 185.264C1161.82 185.264 1168.64 155.459 1225.74 155.459C1282.84 155.459 1314.73 196.439 1380.59 196.439C1446.46 196.439 1471.98 138.235 1580.36 138.235C1654.13 138.235 1684.71 198.523 1824 196.212" stroke="url(#paint7_linear_3_2461)" stroke-width="1.5" stroke-miterlimit="10"/>
</g>
<path d="M0 0H1824V400H0V0Z" fill="url(#paint8_radial_3_2461)"/>
<g filter="url(#filter0_f_3_2461)">
<ellipse cx="912" cy="156" rx="406" ry="90" fill="#C7EDFF" fill-opacity="0.8"/>
</g>
<path d="M1508.03 221.33C1529.31 214.819 1542.46 187.353 1537.4 159.982C1532.34 132.612 1510.98 115.701 1489.7 122.212C1468.42 128.722 1455.27 156.188 1460.33 183.559C1465.39 210.93 1486.75 227.84 1508.03 221.33Z" fill="url(#paint9_radial_3_2461)" style="mix-blend-mode:color-dodge"/>
<path d="M308.031 279.33C329.313 272.819 342.462 245.353 337.399 217.982C332.337 190.612 310.981 173.701 289.699 180.212C268.417 186.722 255.268 214.188 260.33 241.559C265.392 268.93 286.749 285.84 308.031 279.33Z" fill="url(#paint10_radial_3_2461)" style="mix-blend-mode:color-dodge"/>
<path d="M1702.87 147.33C1724.15 140.819 1737.3 113.353 1732.24 85.9823C1727.17 58.6116 1705.82 41.7011 1684.53 48.2116C1663.25 54.7222 1650.1 82.1883 1655.17 109.559C1660.23 136.93 1681.58 153.84 1702.87 147.33Z" fill="url(#paint11_radial_3_2461)" style="mix-blend-mode:color-dodge"/>
<path d="M1696.04 162.438C1701.48 160.774 1704.84 153.753 1703.55 146.758C1702.26 139.762 1696.8 135.439 1691.36 137.103C1685.92 138.767 1682.56 145.788 1683.85 152.784C1685.14 159.78 1690.6 164.102 1696.04 162.438Z" fill="url(#paint12_radial_3_2461)" style="mix-blend-mode:color-dodge"/>
<path d="M1518.04 246.438C1523.48 244.774 1526.84 237.753 1525.55 230.758C1524.26 223.762 1518.8 219.439 1513.36 221.103C1507.92 222.767 1504.56 229.788 1505.85 236.784C1507.14 243.78 1512.6 248.102 1518.04 246.438Z" fill="url(#paint13_radial_3_2461)" style="mix-blend-mode:color-dodge"/>
<path d="M1560.04 96.4379C1565.48 94.7738 1568.84 87.7535 1567.55 80.7575C1566.26 73.7616 1560.8 69.4393 1555.36 71.1034C1549.92 72.7674 1546.56 79.7878 1547.85 86.7837C1549.14 93.7797 1554.6 98.102 1560.04 96.4379Z" fill="url(#paint14_radial_3_2461)" style="mix-blend-mode:color-dodge"/>
<path d="M614.535 108.321C619.975 106.657 623.336 99.637 622.042 92.6411C620.748 85.6451 615.289 81.3228 609.849 82.9869C604.41 84.651 601.049 91.6713 602.343 98.6673C603.637 105.663 609.095 109.986 614.535 108.321Z" fill="url(#paint15_radial_3_2461)" style="mix-blend-mode:color-dodge"/>
<path d="M676.811 180.62C687.532 177.34 694.156 163.504 691.605 149.716C689.055 135.928 678.297 127.409 667.576 130.689C656.855 133.968 650.231 147.804 652.781 161.593C655.332 175.381 666.09 183.899 676.811 180.62Z" fill="url(#paint16_radial_3_2461)" style="mix-blend-mode:color-dodge"/>
<path d="M776.811 100.62C787.532 97.34 794.156 83.5038 791.605 69.7157C789.055 55.9275 778.297 47.4088 767.576 50.6885C756.855 53.9682 750.231 67.8044 752.781 81.5925C755.332 95.3806 766.09 103.899 776.811 100.62Z" fill="url(#paint17_radial_3_2461)" style="mix-blend-mode:color-dodge"/>
<path d="M98.8109 168.62C109.532 165.34 116.156 151.504 113.605 137.716C111.055 123.928 100.297 115.409 89.5761 118.689C78.8551 121.968 72.2314 135.804 74.7815 149.593C77.3316 163.381 88.09 171.899 98.8109 168.62Z" fill="url(#paint18_radial_3_2461)" style="mix-blend-mode:color-dodge"/>
<path d="M1076.81 300.62C1087.53 297.34 1094.16 283.504 1091.61 269.716C1089.06 255.927 1078.3 247.409 1067.58 250.688C1056.86 253.968 1050.23 267.804 1052.78 281.592C1055.33 295.381 1066.09 303.899 1076.81 300.62Z" fill="url(#paint19_radial_3_2461)" style="mix-blend-mode:color-dodge"/>
<path d="M214.811 110.62C225.532 107.34 232.156 93.5038 229.605 79.7157C227.055 65.9275 216.297 57.4088 205.576 60.6885C194.855 63.9682 188.231 77.8044 190.781 91.5925C193.332 105.381 204.09 113.899 214.811 110.62Z" fill="url(#paint20_radial_3_2461)" style="mix-blend-mode:color-dodge"/>
<path d="M1282.99 87.015C1289.85 84.9147 1294.09 76.054 1292.46 67.2242C1290.83 58.3944 1283.94 52.939 1277.07 55.0393C1270.21 57.1396 1265.96 66.0003 1267.6 74.8301C1269.23 83.6599 1276.12 89.1153 1282.99 87.015Z" fill="url(#paint21_radial_3_2461)" style="mix-blend-mode:color-dodge"/>
<path d="M458.345 187.015C465.211 184.915 469.453 176.054 467.82 167.224C466.187 158.394 459.297 152.939 452.431 155.039C445.566 157.14 441.324 166 442.957 174.83C444.59 183.66 451.48 189.115 458.345 187.015Z" fill="url(#paint22_radial_3_2461)" style="mix-blend-mode:color-dodge"/>
<path d="M438.345 25.015C445.211 22.9147 449.453 14.054 447.82 5.22421C446.187 -3.60561 439.297 -9.06096 432.431 -6.96066C425.566 -4.86035 421.324 4.00027 422.957 12.8301C424.59 21.6599 431.48 27.1153 438.345 25.015Z" fill="url(#paint23_radial_3_2461)" style="mix-blend-mode:color-dodge"/>
<path d="M1074.54 96.205C1079.97 94.5409 1083.34 87.5206 1082.04 80.5246C1080.75 73.5287 1075.29 69.2064 1069.85 70.8704C1064.41 72.5345 1061.05 79.5549 1062.34 86.5508C1063.64 93.5468 1069.1 97.8691 1074.54 96.205Z" fill="url(#paint24_radial_3_2461)" style="mix-blend-mode:color-dodge"/>
<path d="M799.171 165.753C785.02 165.753 776.664 157.096 776.664 143.999C776.664 124.654 788.482 110.653 808.053 110.653C822.656 110.653 830.56 118.406 830.56 127.138C830.56 127.891 830.484 128.719 830.334 129.471H819.419C818.817 124.503 814.828 120.514 807.225 120.514C795.332 120.514 788.783 130.901 788.783 143.096C788.783 151.075 793.751 155.892 801.203 155.892C810.01 155.892 814.376 151.15 816.484 143.321H804.816L806.171 135.117H829.958L824.764 165H816.107L816.333 157.096C812.57 162.817 808.128 165.753 799.171 165.753ZM850.71 165.753C839.268 165.753 832.87 159.505 832.87 149.795C832.87 134.816 842.279 125.407 855.828 125.407C866.893 125.407 873.216 132.106 873.216 141.364C873.216 143.773 872.84 146.031 872.163 148.139H844.161C844.086 148.892 844.086 149.644 844.086 150.322C844.086 155.365 846.72 158.075 851.463 158.075C855.452 158.075 858.538 156.118 860.194 152.505H870.883C868.549 160.484 862.001 165.753 850.71 165.753ZM855.076 133.084C850.409 133.084 846.946 135.719 845.441 140.762H862.001C862.001 135.945 859.743 133.084 855.076 133.084ZM910.489 165H898.973L903.113 141.59C903.188 140.913 903.263 140.16 903.263 139.558C903.263 136.396 901.682 134.665 898.596 134.665C894.155 134.665 890.843 137.902 889.865 143.773L886.176 165H874.66L881.434 126.159H892.349L891.445 131.504C894.23 127.514 898.22 125.407 903.113 125.407C910.79 125.407 915.307 129.245 915.307 136.171C915.307 137.149 915.156 138.278 915.006 139.332L910.489 165ZM928.664 165H917.147L923.922 126.159H935.439L928.664 165ZM930.847 121.267C927.159 121.267 924.976 119.084 924.976 116.374C924.976 112.46 927.61 109.675 932.353 109.675C936.041 109.675 938.224 111.857 938.224 114.567C938.224 118.481 935.589 121.267 930.847 121.267ZM954.724 165.753C943.283 165.753 936.885 159.505 936.885 149.795C936.885 134.816 946.294 125.407 959.843 125.407C970.908 125.407 977.231 132.106 977.231 141.364C977.231 143.773 976.855 146.031 976.177 148.139H948.176C948.1 148.892 948.1 149.644 948.1 150.322C948.1 155.365 950.735 158.075 955.477 158.075C959.467 158.075 962.553 156.118 964.209 152.505H974.898C972.564 160.484 966.015 165.753 954.724 165.753ZM959.09 133.084C954.423 133.084 950.961 135.719 949.455 140.762H966.015C966.015 135.945 963.757 133.084 959.09 133.084Z" fill="#283245"/>
<path d="M1015.29 129.277C1014.43 126.96 1011.16 126.96 1010.3 129.277L1007.47 136.924C1007.2 137.652 1006.63 138.226 1005.9 138.496L998.251 141.326C995.934 142.183 995.934 145.46 998.251 146.317L1005.9 149.147C1006.63 149.416 1007.2 149.991 1007.47 150.719L1010.3 158.366C1011.16 160.683 1014.43 160.683 1015.29 158.366L1018.12 150.719C1018.39 149.991 1018.97 149.416 1019.69 149.147L1027.34 146.317C1029.66 145.46 1029.66 142.183 1027.34 141.326L1019.69 138.496C1018.97 138.226 1018.39 137.652 1018.12 136.924L1015.29 129.277Z" fill="#1C2431"/>
<path d="M1037.99 115.261C1037.56 114.102 1035.92 114.102 1035.49 115.261L1033.36 121.027C1033.22 121.391 1032.94 121.678 1032.57 121.813L1026.81 123.947C1025.65 124.375 1025.65 126.014 1026.81 126.442L1032.57 128.576C1032.94 128.711 1033.22 128.998 1033.36 129.362L1035.49 135.128C1035.92 136.287 1037.56 136.287 1037.99 135.128L1040.12 129.362C1040.26 128.998 1040.54 128.711 1040.91 128.576L1046.67 126.442C1047.83 126.014 1047.83 124.375 1046.67 123.947L1040.91 121.813C1040.54 121.678 1040.26 121.391 1040.12 121.027L1037.99 115.261Z" fill="#1C2431"/>
<path d="M596.486 223L597.942 214.6L592.202 203.064H594.862L599.426 212.36L607.238 203.064H610.178L600.378 214.6L598.894 223H596.486ZM611.253 221.488C614.809 221.488 616.881 218.38 616.881 214.32C616.881 211.604 615.481 210.064 613.073 210.064C609.517 210.064 607.445 213.172 607.445 217.232C607.445 219.948 608.845 221.488 611.253 221.488ZM611.113 223.28C607.361 223.28 605.121 221.012 605.121 217.344C605.121 212.024 608.145 208.272 613.185 208.272C616.965 208.272 619.205 210.54 619.205 214.208C619.205 219.528 616.181 223.28 611.113 223.28ZM625.464 223.28C622.664 223.28 620.956 221.936 620.956 219.332C620.956 218.968 620.984 218.52 621.068 218.1L622.748 208.552H625.072L623.448 217.736C623.392 218.128 623.364 218.464 623.364 218.8C623.364 220.508 624.344 221.404 626.136 221.404C628.376 221.404 630.336 219.78 630.84 216.812L632.24 208.552H634.564L632.044 223H629.832L630.252 220.676C629.132 222.328 627.396 223.28 625.464 223.28ZM637.345 223H635.021L637.541 208.552H639.753L639.221 211.632C640.369 209.196 641.853 208.412 643.785 208.412C644.177 208.412 644.933 208.468 645.325 208.552L644.989 210.568L643.393 210.512C641.013 210.512 639.221 212.192 638.605 215.72L637.345 223ZM658.053 222.44C654.665 222.44 652.509 220.2 652.509 216.924C652.509 211.884 655.281 208.272 659.845 208.272C662.449 208.272 664.017 209.504 664.605 211.772L665.165 208.552H667.377L664.997 222.048C664.185 226.78 661.665 228.768 657.437 228.768C654.189 228.768 651.893 227.172 651.893 224.316C651.893 224.148 651.893 223.952 651.921 223.756H653.965C653.965 225.912 655.337 227.172 657.633 227.172C660.461 227.172 662.057 225.744 662.617 222.552L663.093 219.836C662.197 221.32 660.433 222.44 658.053 222.44ZM658.501 220.76C661.777 220.76 663.905 217.876 663.905 213.9C663.905 211.436 662.393 209.952 660.237 209.952C656.961 209.952 654.833 212.836 654.833 216.812C654.833 219.276 656.345 220.76 658.501 220.76ZM674.553 221.488C678.109 221.488 680.181 218.38 680.181 214.32C680.181 211.604 678.781 210.064 676.373 210.064C672.817 210.064 670.745 213.172 670.745 217.232C670.745 219.948 672.145 221.488 674.553 221.488ZM674.413 223.28C670.661 223.28 668.421 221.012 668.421 217.344C668.421 212.024 671.445 208.272 676.485 208.272C680.265 208.272 682.505 210.54 682.505 214.208C682.505 219.528 679.481 223.28 674.413 223.28ZM691.789 215.86H684.621L684.929 214.068H692.097L691.789 215.86ZM698.664 223.14C696.312 223.14 695.108 222.552 695.108 220.732C695.108 220.396 695.136 220.032 695.22 219.64L696.872 210.232H694.408L694.688 208.552H697.18L697.936 204.184H700.26L699.476 208.552H702.948L702.668 210.232H699.196L697.516 219.696C697.46 219.92 697.46 220.144 697.46 220.312C697.46 221.208 698.02 221.432 699.28 221.432L700.708 221.376L700.428 223C699.84 223.056 699.196 223.14 698.664 223.14ZM708.542 221.488C712.098 221.488 714.17 218.38 714.17 214.32C714.17 211.604 712.77 210.064 710.362 210.064C706.806 210.064 704.734 213.172 704.734 217.232C704.734 219.948 706.134 221.488 708.542 221.488ZM708.402 223.28C704.65 223.28 702.41 221.012 702.41 217.344C702.41 212.024 705.434 208.272 710.474 208.272C714.254 208.272 716.494 210.54 716.494 214.208C716.494 219.528 713.47 223.28 708.402 223.28ZM729.305 223.28C726.561 223.28 724.657 221.852 724.657 219.36C724.657 216.56 726.309 215.188 729.669 214.88L733.169 214.6C734.793 214.46 735.829 214.04 735.829 212.416C735.829 210.876 734.625 209.952 732.665 209.952C730.397 209.952 729.053 210.932 728.745 212.948H726.505C726.729 210.008 728.801 208.272 732.833 208.272C735.997 208.272 738.125 209.644 738.125 212.248C738.125 212.556 738.097 212.892 738.069 213.172L736.977 219.304C736.753 220.508 736.641 221.432 736.641 222.076C736.641 222.496 736.697 222.804 736.781 223H734.737C734.513 222.664 734.429 222.216 734.429 221.768C734.429 221.432 734.457 221.04 734.541 220.592C733.449 222.328 731.797 223.28 729.305 223.28ZM729.977 221.656C732.777 221.656 734.625 219.696 735.073 216.98L735.353 215.272C734.961 215.748 734.121 215.972 732.889 216.084L730.089 216.336C727.933 216.504 726.981 217.484 726.981 219.164C726.981 220.676 728.129 221.656 729.977 221.656ZM744.938 223.28C741.186 223.28 739.45 221.628 739.45 219.276C739.45 219.052 739.478 218.828 739.506 218.604H741.606C741.606 220.676 742.67 221.684 745.134 221.684C747.738 221.684 749.166 220.592 749.166 218.8C749.166 217.568 748.354 217.008 746.842 216.784L744.518 216.42C742.362 216.112 740.934 215.104 740.934 212.892C740.934 209.812 743.426 208.272 747.038 208.272C749.95 208.272 752.106 209.364 752.106 212.08C752.106 212.276 752.106 212.5 752.078 212.724H749.978C749.978 211.044 749.418 209.868 746.842 209.868C744.77 209.868 743.258 210.652 743.258 212.724C743.258 213.956 744.014 214.376 745.134 214.544L747.486 214.908C749.978 215.272 751.49 216.336 751.49 218.66C751.49 221.404 749.222 223.28 744.938 223.28ZM758.747 223.28C754.995 223.28 753.259 221.628 753.259 219.276C753.259 219.052 753.287 218.828 753.315 218.604H755.415C755.415 220.676 756.479 221.684 758.943 221.684C761.547 221.684 762.975 220.592 762.975 218.8C762.975 217.568 762.163 217.008 760.651 216.784L758.327 216.42C756.171 216.112 754.743 215.104 754.743 212.892C754.743 209.812 757.235 208.272 760.847 208.272C763.759 208.272 765.915 209.364 765.915 212.08C765.915 212.276 765.915 212.5 765.887 212.724H763.787C763.787 211.044 763.227 209.868 760.651 209.868C758.579 209.868 757.067 210.652 757.067 212.724C757.067 213.956 757.823 214.376 758.943 214.544L761.295 214.908C763.787 215.272 765.299 216.336 765.299 218.66C765.299 221.404 763.031 223.28 758.747 223.28ZM769.251 223H766.927L769.447 208.552H771.771L769.251 223ZM771.183 205.668C770.371 205.668 769.895 205.192 769.895 204.576C769.895 203.736 770.455 203.092 771.519 203.092C772.359 203.092 772.835 203.568 772.835 204.184C772.835 205.052 772.247 205.668 771.183 205.668ZM777.86 223.28C774.108 223.28 772.372 221.628 772.372 219.276C772.372 219.052 772.4 218.828 772.428 218.604H774.528C774.528 220.676 775.592 221.684 778.056 221.684C780.66 221.684 782.088 220.592 782.088 218.8C782.088 217.568 781.276 217.008 779.764 216.784L777.44 216.42C775.284 216.112 773.856 215.104 773.856 212.892C773.856 209.812 776.348 208.272 779.96 208.272C782.872 208.272 785.028 209.364 785.028 212.08C785.028 212.276 785.028 212.5 785 212.724H782.9C782.9 211.044 782.34 209.868 779.764 209.868C777.692 209.868 776.18 210.652 776.18 212.724C776.18 213.956 776.936 214.376 778.056 214.544L780.408 214.908C782.9 215.272 784.412 216.336 784.412 218.66C784.412 221.404 782.144 223.28 777.86 223.28ZM791.059 223.14C788.707 223.14 787.503 222.552 787.503 220.732C787.503 220.396 787.531 220.032 787.615 219.64L789.267 210.232H786.803L787.083 208.552H789.575L790.331 204.184H792.655L791.871 208.552H795.343L795.063 210.232H791.591L789.911 219.696C789.855 219.92 789.855 220.144 789.855 220.312C789.855 221.208 790.415 221.432 791.675 221.432L793.103 221.376L792.823 223C792.235 223.056 791.591 223.14 791.059 223.14ZM799.825 223.28C797.081 223.28 795.177 221.852 795.177 219.36C795.177 216.56 796.829 215.188 800.189 214.88L803.689 214.6C805.313 214.46 806.349 214.04 806.349 212.416C806.349 210.876 805.145 209.952 803.185 209.952C800.917 209.952 799.573 210.932 799.265 212.948H797.025C797.249 210.008 799.321 208.272 803.353 208.272C806.517 208.272 808.645 209.644 808.645 212.248C808.645 212.556 808.617 212.892 808.589 213.172L807.497 219.304C807.273 220.508 807.161 221.432 807.161 222.076C807.161 222.496 807.217 222.804 807.301 223H805.257C805.033 222.664 804.949 222.216 804.949 221.768C804.949 221.432 804.977 221.04 805.061 220.592C803.969 222.328 802.317 223.28 799.825 223.28ZM800.497 221.656C803.297 221.656 805.145 219.696 805.593 216.98L805.873 215.272C805.481 215.748 804.641 215.972 803.409 216.084L800.609 216.336C798.453 216.504 797.501 217.484 797.501 219.164C797.501 220.676 798.649 221.656 800.497 221.656ZM821.645 223H819.321L820.945 213.816C821.001 213.424 821.029 213.088 821.029 212.752C821.029 211.044 820.049 210.148 818.257 210.148C816.017 210.148 814.085 211.8 813.581 214.74L812.153 223H809.829L812.349 208.552H814.561L814.141 210.876C815.261 209.224 816.997 208.272 818.929 208.272C821.729 208.272 823.437 209.616 823.437 212.22C823.437 212.584 823.409 213.032 823.325 213.452L821.645 223ZM829.641 223.14C827.289 223.14 826.085 222.552 826.085 220.732C826.085 220.396 826.113 220.032 826.197 219.64L827.849 210.232H825.385L825.665 208.552H828.157L828.913 204.184H831.237L830.453 208.552H833.925L833.645 210.232H830.173L828.493 219.696C828.437 219.92 828.437 220.144 828.437 220.312C828.437 221.208 828.997 221.432 830.257 221.432L831.685 221.376L831.405 223C830.817 223.056 830.173 223.14 829.641 223.14ZM844.203 223H841.879L844.119 210.232H841.655L841.935 208.552H844.427L844.735 206.76C845.183 204.184 846.191 202.924 848.935 202.924C849.551 202.924 850.615 203.008 851.175 203.064L850.923 204.688L849.271 204.632C847.731 204.632 847.283 205.304 847.059 206.704L846.751 208.552H850.195L849.915 210.232H846.443L844.203 223ZM855.514 221.488C859.07 221.488 861.142 218.38 861.142 214.32C861.142 211.604 859.742 210.064 857.334 210.064C853.778 210.064 851.706 213.172 851.706 217.232C851.706 219.948 853.106 221.488 855.514 221.488ZM855.374 223.28C851.622 223.28 849.382 221.012 849.382 217.344C849.382 212.024 852.406 208.272 857.446 208.272C861.226 208.272 863.466 210.54 863.466 214.208C863.466 219.528 860.442 223.28 855.374 223.28ZM866.814 223H864.49L867.01 208.552H869.222L868.69 211.632C869.838 209.196 871.322 208.412 873.254 208.412C873.646 208.412 874.402 208.468 874.794 208.552L874.458 210.568L872.862 210.512C870.482 210.512 868.69 212.192 868.074 215.72L866.814 223ZM886.094 223.28C883.35 223.28 881.446 221.852 881.446 219.36C881.446 216.56 883.098 215.188 886.458 214.88L889.958 214.6C891.582 214.46 892.618 214.04 892.618 212.416C892.618 210.876 891.414 209.952 889.454 209.952C887.186 209.952 885.842 210.932 885.534 212.948H883.294C883.518 210.008 885.59 208.272 889.622 208.272C892.786 208.272 894.914 209.644 894.914 212.248C894.914 212.556 894.886 212.892 894.858 213.172L893.766 219.304C893.542 220.508 893.43 221.432 893.43 222.076C893.43 222.496 893.486 222.804 893.57 223H891.526C891.302 222.664 891.218 222.216 891.218 221.768C891.218 221.432 891.246 221.04 891.33 220.592C890.238 222.328 888.586 223.28 886.094 223.28ZM886.766 221.656C889.566 221.656 891.414 219.696 891.862 216.98L892.142 215.272C891.75 215.748 890.91 215.972 889.678 216.084L886.878 216.336C884.722 216.504 883.77 217.484 883.77 219.164C883.77 220.676 884.918 221.656 886.766 221.656ZM898.423 223H896.099L899.599 203.064H901.923L898.423 223ZM903.728 223H901.404L904.904 203.064H907.228L903.728 223ZM920.12 223.28C916.536 223.28 914.296 221.012 914.296 217.344C914.296 212.024 917.208 208.272 922.192 208.272C925.972 208.272 927.876 210.68 927.876 213.032C927.876 213.228 927.848 213.452 927.82 213.704H925.72C925.72 211.912 924.572 210.064 922.052 210.064C918.608 210.064 916.62 213.172 916.62 217.232C916.62 219.948 918.02 221.488 920.26 221.488C922.752 221.488 924.46 220.116 925.16 217.736H927.26C926.728 220.844 924.404 223.28 920.12 223.28ZM935.057 221.488C938.613 221.488 940.685 218.38 940.685 214.32C940.685 211.604 939.285 210.064 936.877 210.064C933.321 210.064 931.249 213.172 931.249 217.232C931.249 219.948 932.649 221.488 935.057 221.488ZM934.917 223.28C931.165 223.28 928.925 221.012 928.925 217.344C928.925 212.024 931.949 208.272 936.989 208.272C940.769 208.272 943.009 210.54 943.009 214.208C943.009 219.528 939.985 223.28 934.917 223.28ZM962.849 223H960.609L962.233 213.76C962.289 213.396 962.317 213.004 962.317 212.668C962.317 211.212 961.701 210.148 960.077 210.148C958.145 210.148 956.465 211.716 955.989 214.6L954.505 223H952.293L953.889 213.76C953.973 213.368 954.001 212.976 954.001 212.668C954.001 211.24 953.385 210.148 951.789 210.148C949.857 210.148 948.233 211.716 947.729 214.6L946.273 223H944.033L946.553 208.552H948.765L948.345 210.876C949.213 209.336 950.781 208.272 952.461 208.272C954.729 208.272 955.933 209.42 956.269 211.184C957.277 209.28 958.901 208.272 960.749 208.272C963.157 208.272 964.641 209.728 964.641 212.192C964.641 212.584 964.613 213.004 964.529 213.452L962.849 223ZM973.358 223.28C970.838 223.28 969.242 222.104 968.682 219.92L967.17 228.488H964.846L968.346 208.552H970.558L970.11 211.1C971.118 209.392 972.91 208.272 975.29 208.272C978.902 208.272 980.778 210.736 980.778 214.208C980.778 219.248 978.118 223.28 973.358 223.28ZM972.966 221.488C976.438 221.488 978.454 218.38 978.454 214.32C978.454 211.604 977.11 210.064 974.786 210.064C971.314 210.064 969.298 213.172 969.298 217.232C969.298 219.948 970.642 221.488 972.966 221.488ZM986.61 223.28C983.866 223.28 981.962 221.852 981.962 219.36C981.962 216.56 983.614 215.188 986.974 214.88L990.474 214.6C992.098 214.46 993.134 214.04 993.134 212.416C993.134 210.876 991.93 209.952 989.97 209.952C987.702 209.952 986.358 210.932 986.05 212.948H983.81C984.034 210.008 986.106 208.272 990.138 208.272C993.302 208.272 995.43 209.644 995.43 212.248C995.43 212.556 995.402 212.892 995.374 213.172L994.282 219.304C994.058 220.508 993.946 221.432 993.946 222.076C993.946 222.496 994.002 222.804 994.086 223H992.042C991.818 222.664 991.734 222.216 991.734 221.768C991.734 221.432 991.762 221.04 991.846 220.592C990.754 222.328 989.102 223.28 986.61 223.28ZM987.282 221.656C990.082 221.656 991.93 219.696 992.378 216.98L992.658 215.272C992.266 215.748 991.426 215.972 990.194 216.084L987.394 216.336C985.238 216.504 984.286 217.484 984.286 219.164C984.286 220.676 985.434 221.656 987.282 221.656ZM1008.43 223H1006.11L1007.73 213.816C1007.79 213.424 1007.81 213.088 1007.81 212.752C1007.81 211.044 1006.83 210.148 1005.04 210.148C1002.8 210.148 1000.87 211.8 1000.37 214.74L998.939 223H996.615L999.135 208.552H1001.35L1000.93 210.876C1002.05 209.224 1003.78 208.272 1005.71 208.272C1008.51 208.272 1010.22 209.616 1010.22 212.22C1010.22 212.584 1010.19 213.032 1010.11 213.452L1008.43 223ZM1009.94 228.488L1010.25 226.808H1011.45C1012.96 226.808 1014.25 225.884 1015.43 223.784L1012.12 208.552H1014.42L1016.83 221.068L1023.66 208.552H1026.18L1017.67 223.504C1015.46 227.368 1013.8 228.488 1011.23 228.488H1009.94ZM1040.05 223.28C1037.53 223.28 1035.93 222.104 1035.37 219.92L1033.86 228.488H1031.54L1035.04 208.552H1037.25L1036.8 211.1C1037.81 209.392 1039.6 208.272 1041.98 208.272C1045.59 208.272 1047.47 210.736 1047.47 214.208C1047.47 219.248 1044.81 223.28 1040.05 223.28ZM1039.66 221.488C1043.13 221.488 1045.14 218.38 1045.14 214.32C1045.14 211.604 1043.8 210.064 1041.48 210.064C1038 210.064 1035.99 213.172 1035.99 217.232C1035.99 219.948 1037.33 221.488 1039.66 221.488ZM1055.23 221.488C1058.79 221.488 1060.86 218.38 1060.86 214.32C1060.86 211.604 1059.46 210.064 1057.05 210.064C1053.5 210.064 1051.43 213.172 1051.43 217.232C1051.43 219.948 1052.83 221.488 1055.23 221.488ZM1055.09 223.28C1051.34 223.28 1049.1 221.012 1049.1 217.344C1049.1 212.024 1052.13 208.272 1057.17 208.272C1060.95 208.272 1063.19 210.54 1063.19 214.208C1063.19 219.528 1060.16 223.28 1055.09 223.28ZM1066.53 223H1064.21L1067.71 203.064H1070.03L1066.53 223ZM1071.84 223H1069.51L1072.03 208.552H1074.36L1071.84 223ZM1073.77 205.668C1072.96 205.668 1072.48 205.192 1072.48 204.576C1072.48 203.736 1073.04 203.092 1074.11 203.092C1074.95 203.092 1075.42 203.568 1075.42 204.184C1075.42 205.052 1074.83 205.668 1073.77 205.668ZM1081.23 223.28C1077.65 223.28 1075.41 221.012 1075.41 217.344C1075.41 212.024 1078.32 208.272 1083.3 208.272C1087.08 208.272 1088.99 210.68 1088.99 213.032C1088.99 213.228 1088.96 213.452 1088.93 213.704H1086.83C1086.83 211.912 1085.68 210.064 1083.16 210.064C1079.72 210.064 1077.73 213.172 1077.73 217.232C1077.73 219.948 1079.13 221.488 1081.37 221.488C1083.86 221.488 1085.57 220.116 1086.27 217.736H1088.37C1087.84 220.844 1085.51 223.28 1081.23 223.28ZM1088.28 228.488L1088.59 226.808H1089.79C1091.3 226.808 1092.59 225.884 1093.77 223.784L1090.46 208.552H1092.76L1095.17 221.068L1102 208.552H1104.52L1096.01 223.504C1093.8 227.368 1092.14 228.488 1089.57 228.488H1088.28ZM1116.93 223.28C1113.32 223.28 1111.44 220.816 1111.44 217.344C1111.44 212.304 1114.1 208.272 1118.86 208.272C1121.47 208.272 1123.04 209.476 1123.62 211.772L1124.18 208.552H1126.4L1122.9 228.488H1120.57L1122 220.592C1121.05 222.16 1119.31 223.28 1116.93 223.28ZM1117.44 221.488C1120.91 221.488 1122.92 218.38 1122.92 214.32C1122.92 211.604 1121.58 210.064 1119.26 210.064C1115.78 210.064 1113.77 213.172 1113.77 217.232C1113.77 219.948 1115.11 221.488 1117.44 221.488ZM1132.09 223.28C1129.29 223.28 1127.58 221.936 1127.58 219.332C1127.58 218.968 1127.61 218.52 1127.69 218.1L1129.37 208.552H1131.7L1130.07 217.736C1130.02 218.128 1129.99 218.464 1129.99 218.8C1129.99 220.508 1130.97 221.404 1132.76 221.404C1135 221.404 1136.96 219.78 1137.46 216.812L1138.86 208.552H1141.19L1138.67 223H1136.46L1136.88 220.676C1135.76 222.328 1134.02 223.28 1132.09 223.28ZM1148.23 223.28C1144.39 223.28 1142.23 220.956 1142.23 217.344C1142.23 212.36 1144.98 208.272 1150.13 208.272C1154.33 208.272 1155.98 211.352 1155.98 214.208C1155.98 215.02 1155.87 215.72 1155.76 216.14H1144.59C1144.5 216.616 1144.5 217.036 1144.5 217.428C1144.5 220.2 1145.96 221.656 1148.37 221.656C1150.61 221.656 1152.23 220.452 1153.07 218.604H1155.17C1154.22 221.488 1151.92 223.28 1148.23 223.28ZM1150.02 209.896C1147.53 209.896 1145.48 211.436 1144.84 214.572H1153.69C1153.71 214.376 1153.71 214.208 1153.71 214.012C1153.71 211.492 1152.34 209.896 1150.02 209.896ZM1162.64 223.28C1158.89 223.28 1157.15 221.628 1157.15 219.276C1157.15 219.052 1157.18 218.828 1157.21 218.604H1159.31C1159.31 220.676 1160.37 221.684 1162.84 221.684C1165.44 221.684 1166.87 220.592 1166.87 218.8C1166.87 217.568 1166.06 217.008 1164.55 216.784L1162.22 216.42C1160.07 216.112 1158.64 215.104 1158.64 212.892C1158.64 209.812 1161.13 208.272 1164.74 208.272C1167.65 208.272 1169.81 209.364 1169.81 212.08C1169.81 212.276 1169.81 212.5 1169.78 212.724H1167.68C1167.68 211.044 1167.12 209.868 1164.55 209.868C1162.47 209.868 1160.96 210.652 1160.96 212.724C1160.96 213.956 1161.72 214.376 1162.84 214.544L1165.19 214.908C1167.68 215.272 1169.19 216.336 1169.19 218.66C1169.19 221.404 1166.93 223.28 1162.64 223.28ZM1175.84 223.14C1173.49 223.14 1172.28 222.552 1172.28 220.732C1172.28 220.396 1172.31 220.032 1172.4 219.64L1174.05 210.232H1171.58L1171.86 208.552H1174.36L1175.11 204.184H1177.44L1176.65 208.552H1180.12L1179.84 210.232H1176.37L1174.69 219.696C1174.64 219.92 1174.64 220.144 1174.64 220.312C1174.64 221.208 1175.2 221.432 1176.46 221.432L1177.88 221.376L1177.6 223C1177.02 223.056 1176.37 223.14 1175.84 223.14ZM1182.14 223H1179.82L1182.34 208.552H1184.66L1182.14 223ZM1184.07 205.668C1183.26 205.668 1182.79 205.192 1182.79 204.576C1182.79 203.736 1183.35 203.092 1184.41 203.092C1185.25 203.092 1185.73 203.568 1185.73 204.184C1185.73 205.052 1185.14 205.668 1184.07 205.668ZM1191.84 221.488C1195.4 221.488 1197.47 218.38 1197.47 214.32C1197.47 211.604 1196.07 210.064 1193.66 210.064C1190.11 210.064 1188.03 213.172 1188.03 217.232C1188.03 219.948 1189.43 221.488 1191.84 221.488ZM1191.7 223.28C1187.95 223.28 1185.71 221.012 1185.71 217.344C1185.71 212.024 1188.73 208.272 1193.77 208.272C1197.55 208.272 1199.79 210.54 1199.79 214.208C1199.79 219.528 1196.77 223.28 1191.7 223.28ZM1212.63 223H1210.31L1211.93 213.816C1211.99 213.424 1212.02 213.088 1212.02 212.752C1212.02 211.044 1211.04 210.148 1209.25 210.148C1207.01 210.148 1205.07 211.8 1204.57 214.74L1203.14 223H1200.82L1203.34 208.552H1205.55L1205.13 210.876C1206.25 209.224 1207.99 208.272 1209.92 208.272C1212.72 208.272 1214.43 209.616 1214.43 212.22C1214.43 212.584 1214.4 213.032 1214.31 213.452L1212.63 223ZM1221.24 223.28C1217.49 223.28 1215.75 221.628 1215.75 219.276C1215.75 219.052 1215.78 218.828 1215.81 218.604H1217.91C1217.91 220.676 1218.97 221.684 1221.43 221.684C1224.04 221.684 1225.47 220.592 1225.47 218.8C1225.47 217.568 1224.65 217.008 1223.14 216.784L1220.82 216.42C1218.66 216.112 1217.23 215.104 1217.23 212.892C1217.23 209.812 1219.73 208.272 1223.34 208.272C1226.25 208.272 1228.41 209.364 1228.41 212.08C1228.41 212.276 1228.41 212.5 1228.38 212.724H1226.28C1226.28 211.044 1225.72 209.868 1223.14 209.868C1221.07 209.868 1219.56 210.652 1219.56 212.724C1219.56 213.956 1220.31 214.376 1221.43 214.544L1223.79 214.908C1226.28 215.272 1227.79 216.336 1227.79 218.66C1227.79 221.404 1225.52 223.28 1221.24 223.28ZM1230.6 223.168C1229.76 223.168 1229.22 222.664 1229.22 222.02C1229.22 221.152 1229.84 220.48 1230.93 220.48C1231.8 220.48 1232.3 220.984 1232.3 221.628C1232.3 222.524 1231.69 223.168 1230.6 223.168Z" fill="#222222"/>
</g>
<path d="M1824 0H1822V400H1824H1826V0H1824ZM0 400H2V0H0H-2V400H0Z" fill="#E0E0E0" mask="url(#path-1-inside-1_3_2461)"/>
<defs>
<filter id="filter0_f_3_2461" x="418" y="-22" width="988" height="356" filterUnits="userSpaceOnUse" color-interpolation-filters="sRGB">
<feFlood flood-opacity="0" result="BackgroundImageFix"/>
<feBlend mode="normal" in="SourceGraphic" in2="BackgroundImageFix" result="shape"/>
<feGaussianBlur stdDeviation="44" result="effect1_foregroundBlur_3_2461"/>
</filter>
<linearGradient id="paint0_linear_3_2461" x1="-16.6795" y1="142.004" x2="1932.05" y2="142.004" gradientUnits="userSpaceOnUse">
<stop stop-color="#179AD9" stop-opacity="0.7"/>
<stop offset="0.03" stop-color="#179AD9" stop-opacity="0.67"/>
<stop offset="0.07" stop-color="#179AD9" stop-opacity="0.6"/>
<stop offset="0.11" stop-color="#179AD9" stop-opacity="0.49"/>
<stop offset="0.16" stop-color="#179AD9" stop-opacity="0.33"/>
<stop offset="0.21" stop-color="#179AD9" stop-opacity="0.12"/>
<stop offset="0.24" stop-color="#179AD9" stop-opacity="0"/>
<stop offset="0.67" stop-color="#179AD9" stop-opacity="0.4"/>
<stop offset="0.72" stop-color="#179AD9" stop-opacity="0.37"/>
<stop offset="0.8" stop-color="#179AD9" stop-opacity="0.3"/>
<stop offset="0.88" stop-color="#179AD9" stop-opacity="0.19"/>
<stop offset="0.98" stop-color="#36136D" stop-opacity="0.03"/>
<stop offset="1" stop-color="#330061" stop-opacity="0"/>
</linearGradient>
<linearGradient id="paint1_linear_3_2461" x1="-16.6795" y1="181.996" x2="1932.05" y2="181.996" gradientUnits="userSpaceOnUse">
<stop stop-color="#179AD9" stop-opacity="0.7"/>
<stop offset="0.03" stop-color="#179AD9" stop-opacity="0.67"/>
<stop offset="0.07" stop-color="#179AD9" stop-opacity="0.6"/>
<stop offset="0.11" stop-color="#179AD9" stop-opacity="0.49"/>
<stop offset="0.16" stop-color="#179AD9" stop-opacity="0.33"/>
<stop offset="0.21" stop-color="#179AD9" stop-opacity="0.12"/>
<stop offset="0.24" stop-color="#179AD9" stop-opacity="0"/>
<stop offset="0.67" stop-color="#179AD9" stop-opacity="0.4"/>
<stop offset="0.72" stop-color="#179AD9" stop-opacity="0.37"/>
<stop offset="0.8" stop-color="#179AD9" stop-opacity="0.3"/>
<stop offset="0.88" stop-color="#179AD9" stop-opacity="0.19"/>
<stop offset="0.98" stop-color="#36136D" stop-opacity="0.03"/>
<stop offset="1" stop-color="#330061" stop-opacity="0"/>
</linearGradient>
<linearGradient id="paint2_linear_3_2461" x1="1932.68" y1="158" x2="-16.0453" y2="158" gradientUnits="userSpaceOnUse">
<stop stop-color="#24A1DD" stop-opacity="0.7"/>
<stop offset="0.03" stop-color="#24A1DD" stop-opacity="0.67"/>
<stop offset="0.07" stop-color="#24A1DD" stop-opacity="0.6"/>
<stop offset="0.11" stop-color="#24A1DD" stop-opacity="0.49"/>
<stop offset="0.16" stop-color="#24A1DD" stop-opacity="0.33"/>
<stop offset="0.21" stop-color="#24A1DD" stop-opacity="0.12"/>
<stop offset="0.24" stop-color="#24A1DD" stop-opacity="0"/>
<stop offset="0.67" stop-color="#24A1DD" stop-opacity="0.4"/>
<stop offset="0.72" stop-color="#24A1DD" stop-opacity="0.37"/>
<stop offset="0.8" stop-color="#24A1DD" stop-opacity="0.3"/>
<stop offset="0.88" stop-color="#24A1DD" stop-opacity="0.19"/>
<stop offset="0.98" stop-color="#36136D" stop-opacity="0.03"/>
<stop offset="1" stop-color="#330061" stop-opacity="0"/>
</linearGradient>
<linearGradient id="paint3_linear_3_2461" x1="1932.68" y1="166" x2="-16.0453" y2="166" gradientUnits="userSpaceOnUse">
<stop stop-color="#24A1DD" stop-opacity="0.7"/>
<stop offset="0.03" stop-color="#24A1DD" stop-opacity="0.67"/>
<stop offset="0.07" stop-color="#24A1DD" stop-opacity="0.6"/>
<stop offset="0.11" stop-color="#24A1DD" stop-opacity="0.49"/>
<stop offset="0.16" stop-color="#24A1DD" stop-opacity="0.33"/>
<stop offset="0.21" stop-color="#24A1DD" stop-opacity="0.12"/>
<stop offset="0.24" stop-color="#24A1DD" stop-opacity="0"/>
<stop offset="0.67" stop-color="#24A1DD" stop-opacity="0.4"/>
<stop offset="0.72" stop-color="#24A1DD" stop-opacity="0.37"/>
<stop offset="0.8" stop-color="#24A1DD" stop-opacity="0.3"/>
<stop offset="0.88" stop-color="#24A1DD" stop-opacity="0.19"/>
<stop offset="0.98" stop-color="#36136D" stop-opacity="0.03"/>
<stop offset="1" stop-color="#330061" stop-opacity="0"/>
</linearGradient>
<linearGradient id="paint4_linear_3_2461" x1="1824.68" y1="142.004" x2="-124.045" y2="142.004" gradientUnits="userSpaceOnUse">
<stop stop-color="#179AD9" stop-opacity="0.7"/>
<stop offset="0.03" stop-color="#179AD9" stop-opacity="0.67"/>
<stop offset="0.07" stop-color="#179AD9" stop-opacity="0.6"/>
<stop offset="0.11" stop-color="#179AD9" stop-opacity="0.49"/>
<stop offset="0.16" stop-color="#179AD9" stop-opacity="0.33"/>
<stop offset="0.21" stop-color="#179AD9" stop-opacity="0.12"/>
<stop offset="0.24" stop-color="#179AD9" stop-opacity="0"/>
<stop offset="0.67" stop-color="#179AD9" stop-opacity="0.4"/>
<stop offset="0.72" stop-color="#179AD9" stop-opacity="0.37"/>
<stop offset="0.8" stop-color="#179AD9" stop-opacity="0.3"/>
<stop offset="0.88" stop-color="#179AD9" stop-opacity="0.19"/>
<stop offset="0.98" stop-color="#36136D" stop-opacity="0.03"/>
<stop offset="1" stop-color="#330061" stop-opacity="0"/>
</linearGradient>
<linearGradient id="paint5_linear_3_2461" x1="1824.68" y1="181.996" x2="-124.045" y2="181.996" gradientUnits="userSpaceOnUse">
<stop stop-color="#179AD9" stop-opacity="0.7"/>
<stop offset="0.03" stop-color="#179AD9" stop-opacity="0.67"/>
<stop offset="0.07" stop-color="#179AD9" stop-opacity="0.6"/>
<stop offset="0.11" stop-color="#179AD9" stop-opacity="0.49"/>
<stop offset="0.16" stop-color="#179AD9" stop-opacity="0.33"/>
<stop offset="0.21" stop-color="#179AD9" stop-opacity="0.12"/>
<stop offset="0.24" stop-color="#179AD9" stop-opacity="0"/>
<stop offset="0.67" stop-color="#179AD9" stop-opacity="0.4"/>
<stop offset="0.72" stop-color="#179AD9" stop-opacity="0.37"/>
<stop offset="0.8" stop-color="#179AD9" stop-opacity="0.3"/>
<stop offset="0.88" stop-color="#179AD9" stop-opacity="0.19"/>
<stop offset="0.98" stop-color="#36136D" stop-opacity="0.03"/>
<stop offset="1" stop-color="#330061" stop-opacity="0"/>
</linearGradient>
<linearGradient id="paint6_linear_3_2461" x1="-124.679" y1="158" x2="1824.05" y2="158" gradientUnits="userSpaceOnUse">
<stop stop-color="#24A1DD" stop-opacity="0.7"/>
<stop offset="0.03" stop-color="#24A1DD" stop-opacity="0.67"/>
<stop offset="0.07" stop-color="#24A1DD" stop-opacity="0.6"/>
<stop offset="0.11" stop-color="#24A1DD" stop-opacity="0.49"/>
<stop offset="0.16" stop-color="#24A1DD" stop-opacity="0.33"/>
<stop offset="0.21" stop-color="#24A1DD" stop-opacity="0.12"/>
<stop offset="0.24" stop-color="#24A1DD" stop-opacity="0"/>
<stop offset="0.67" stop-color="#24A1DD" stop-opacity="0.4"/>
<stop offset="0.72" stop-color="#24A1DD" stop-opacity="0.37"/>
<stop offset="0.8" stop-color="#24A1DD" stop-opacity="0.3"/>
<stop offset="0.88" stop-color="#24A1DD" stop-opacity="0.19"/>
<stop offset="0.98" stop-color="#36136D" stop-opacity="0.03"/>
<stop offset="1" stop-color="#330061" stop-opacity="0"/>
</linearGradient>
<linearGradient id="paint7_linear_3_2461" x1="-124.679" y1="166" x2="1824.05" y2="166" gradientUnits="userSpaceOnUse">
<stop stop-color="#24A1DD" stop-opacity="0.7"/>
<stop offset="0.03" stop-color="#24A1DD" stop-opacity="0.67"/>
<stop offset="0.07" stop-color="#24A1DD" stop-opacity="0.6"/>
<stop offset="0.11" stop-color="#24A1DD" stop-opacity="0.49"/>
<stop offset="0.16" stop-color="#24A1DD" stop-opacity="0.33"/>
<stop offset="0.21" stop-color="#24A1DD" stop-opacity="0.12"/>
<stop offset="0.24" stop-color="#24A1DD" stop-opacity="0"/>
<stop offset="0.67" stop-color="#24A1DD" stop-opacity="0.4"/>
<stop offset="0.72" stop-color="#24A1DD" stop-opacity="0.37"/>
<stop offset="0.8" stop-color="#24A1DD" stop-opacity="0.3"/>
<stop offset="0.88" stop-color="#24A1DD" stop-opacity="0.19"/>
<stop offset="0.98" stop-color="#36136D" stop-opacity="0.03"/>
<stop offset="1" stop-color="#330061" stop-opacity="0"/>
</linearGradient>
<radialGradient id="paint8_radial_3_2461" cx="0" cy="0" r="1" gradientTransform="matrix(1.72906e-05 -462.049 1123.87 31.1494 912 -66)" gradientUnits="userSpaceOnUse">
<stop stop-color="#24A1DD" stop-opacity="0.41"/>
<stop offset="1" stop-color="#24A1DD" stop-opacity="0"/>
</radialGradient>
<radialGradient id="paint9_radial_3_2461" cx="0" cy="0" r="1" gradientUnits="userSpaceOnUse" gradientTransform="translate(1498.91 171.69) scale(39.6097 50.9418)">
<stop stop-color="#F7F7F7"/>
<stop offset="0.01" stop-color="#C9C9C9"/>
<stop offset="0.03" stop-color="#9E9E9E"/>
<stop offset="0.04" stop-color="#787878"/>
<stop offset="0.06" stop-color="#575757"/>
<stop offset="0.08" stop-color="#3C3C3C"/>
<stop offset="0.1" stop-color="#262626"/>
<stop offset="0.12" stop-color="#151515"/>
<stop offset="0.15" stop-color="#090909"/>
<stop offset="0.2" stop-color="#020202"/>
<stop offset="0.31"/>
</radialGradient>
<radialGradient id="paint10_radial_3_2461" cx="0" cy="0" r="1" gradientUnits="userSpaceOnUse" gradientTransform="translate(298.913 229.69) scale(39.6097 50.9418)">
<stop stop-color="#F7F7F7"/>
<stop offset="0.01" stop-color="#C9C9C9"/>
<stop offset="0.03" stop-color="#9E9E9E"/>
<stop offset="0.04" stop-color="#787878"/>
<stop offset="0.06" stop-color="#575757"/>
<stop offset="0.08" stop-color="#3C3C3C"/>
<stop offset="0.1" stop-color="#262626"/>
<stop offset="0.12" stop-color="#151515"/>
<stop offset="0.15" stop-color="#090909"/>
<stop offset="0.2" stop-color="#020202"/>
<stop offset="0.31"/>
</radialGradient>
<radialGradient id="paint11_radial_3_2461" cx="0" cy="0" r="1" gradientUnits="userSpaceOnUse" gradientTransform="translate(1693.75 97.6896) scale(39.6097 50.9418)">
<stop stop-color="#F7F7F7"/>
<stop offset="0.01" stop-color="#C9C9C9"/>
<stop offset="0.03" stop-color="#9E9E9E"/>
<stop offset="0.04" stop-color="#787878"/>
<stop offset="0.06" stop-color="#575757"/>
<stop offset="0.08" stop-color="#3C3C3C"/>
<stop offset="0.1" stop-color="#262626"/>
<stop offset="0.12" stop-color="#151515"/>
<stop offset="0.15" stop-color="#090909"/>
<stop offset="0.2" stop-color="#020202"/>
<stop offset="0.31"/>
</radialGradient>
<radialGradient id="paint12_radial_3_2461" cx="0" cy="0" r="1" gradientUnits="userSpaceOnUse" gradientTransform="translate(1693.71 149.75) scale(10.1242 13.0207)">
<stop stop-color="#F7F7F7"/>
<stop offset="0.01" stop-color="#C9C9C9"/>
<stop offset="0.03" stop-color="#9E9E9E"/>
<stop offset="0.04" stop-color="#787878"/>
<stop offset="0.06" stop-color="#575757"/>
<stop offset="0.08" stop-color="#3C3C3C"/>
<stop offset="0.1" stop-color="#262626"/>
<stop offset="0.12" stop-color="#151515"/>
<stop offset="0.15" stop-color="#090909"/>
<stop offset="0.2" stop-color="#020202"/>
<stop offset="0.31"/>
</radialGradient>
<radialGradient id="paint13_radial_3_2461" cx="0" cy="0" r="1" gradientUnits="userSpaceOnUse" gradientTransform="translate(1515.71 233.75) scale(10.1242 13.0207)">
<stop stop-color="#F7F7F7"/>
<stop offset="0.01" stop-color="#C9C9C9"/>
<stop offset="0.03" stop-color="#9E9E9E"/>
<stop offset="0.04" stop-color="#787878"/>
<stop offset="0.06" stop-color="#575757"/>
<stop offset="0.08" stop-color="#3C3C3C"/>
<stop offset="0.1" stop-color="#262626"/>
<stop offset="0.12" stop-color="#151515"/>
<stop offset="0.15" stop-color="#090909"/>
<stop offset="0.2" stop-color="#020202"/>
<stop offset="0.31"/>
</radialGradient>
<radialGradient id="paint14_radial_3_2461" cx="0" cy="0" r="1" gradientUnits="userSpaceOnUse" gradientTransform="translate(1557.71 83.7499) scale(10.1242 13.0207)">
<stop stop-color="#F7F7F7"/>
<stop offset="0.01" stop-color="#C9C9C9"/>
<stop offset="0.03" stop-color="#9E9E9E"/>
<stop offset="0.04" stop-color="#787878"/>
<stop offset="0.06" stop-color="#575757"/>
<stop offset="0.08" stop-color="#3C3C3C"/>
<stop offset="0.1" stop-color="#262626"/>
<stop offset="0.12" stop-color="#151515"/>
<stop offset="0.15" stop-color="#090909"/>
<stop offset="0.2" stop-color="#020202"/>
<stop offset="0.31"/>
</radialGradient>
<radialGradient id="paint15_radial_3_2461" cx="0" cy="0" r="1" gradientUnits="userSpaceOnUse" gradientTransform="translate(612.205 95.6334) scale(10.1242 13.0207)">
<stop stop-color="#F7F7F7"/>
<stop offset="0.01" stop-color="#C9C9C9"/>
<stop offset="0.03" stop-color="#9E9E9E"/>
<stop offset="0.04" stop-color="#787878"/>
<stop offset="0.06" stop-color="#575757"/>
<stop offset="0.08" stop-color="#3C3C3C"/>
<stop offset="0.1" stop-color="#262626"/>
<stop offset="0.12" stop-color="#151515"/>
<stop offset="0.15" stop-color="#090909"/>
<stop offset="0.2" stop-color="#020202"/>
<stop offset="0.31"/>
</radialGradient>
<radialGradient id="paint16_radial_3_2461" cx="0" cy="0" r="1" gradientUnits="userSpaceOnUse" gradientTransform="translate(672.218 155.613) scale(19.9536 25.6621)">
<stop stop-color="#F7F7F7"/>
<stop offset="0.01" stop-color="#C9C9C9"/>
<stop offset="0.03" stop-color="#9E9E9E"/>
<stop offset="0.04" stop-color="#787878"/>
<stop offset="0.06" stop-color="#575757"/>
<stop offset="0.08" stop-color="#3C3C3C"/>
<stop offset="0.1" stop-color="#262626"/>
<stop offset="0.12" stop-color="#151515"/>
<stop offset="0.15" stop-color="#090909"/>
<stop offset="0.2" stop-color="#020202"/>
<stop offset="0.31"/>
</radialGradient>
<radialGradient id="paint17_radial_3_2461" cx="0" cy="0" r="1" gradientUnits="userSpaceOnUse" gradientTransform="translate(772.218 75.6133) scale(19.9536 25.6621)">
<stop stop-color="#F7F7F7"/>
<stop offset="0.01" stop-color="#C9C9C9"/>
<stop offset="0.03" stop-color="#9E9E9E"/>
<stop offset="0.04" stop-color="#787878"/>
<stop offset="0.06" stop-color="#575757"/>
<stop offset="0.08" stop-color="#3C3C3C"/>
<stop offset="0.1" stop-color="#262626"/>
<stop offset="0.12" stop-color="#151515"/>
<stop offset="0.15" stop-color="#090909"/>
<stop offset="0.2" stop-color="#020202"/>
<stop offset="0.31"/>
</radialGradient>
<radialGradient id="paint18_radial_3_2461" cx="0" cy="0" r="1" gradientUnits="userSpaceOnUse" gradientTransform="translate(94.2179 143.613) scale(19.9536 25.6621)">
<stop stop-color="#F7F7F7"/>
<stop offset="0.01" stop-color="#C9C9C9"/>
<stop offset="0.03" stop-color="#9E9E9E"/>
<stop offset="0.04" stop-color="#787878"/>
<stop offset="0.06" stop-color="#575757"/>
<stop offset="0.08" stop-color="#3C3C3C"/>
<stop offset="0.1" stop-color="#262626"/>
<stop offset="0.12" stop-color="#151515"/>
<stop offset="0.15" stop-color="#090909"/>
<stop offset="0.2" stop-color="#020202"/>
<stop offset="0.31"/>
</radialGradient>
<radialGradient id="paint19_radial_3_2461" cx="0" cy="0" r="1" gradientUnits="userSpaceOnUse" gradientTransform="translate(1072.22 275.613) scale(19.9536 25.6621)">
<stop stop-color="#F7F7F7"/>
<stop offset="0.01" stop-color="#C9C9C9"/>
<stop offset="0.03" stop-color="#9E9E9E"/>
<stop offset="0.04" stop-color="#787878"/>
<stop offset="0.06" stop-color="#575757"/>
<stop offset="0.08" stop-color="#3C3C3C"/>
<stop offset="0.1" stop-color="#262626"/>
<stop offset="0.12" stop-color="#151515"/>
<stop offset="0.15" stop-color="#090909"/>
<stop offset="0.2" stop-color="#020202"/>
<stop offset="0.31"/>
</radialGradient>
<radialGradient id="paint20_radial_3_2461" cx="0" cy="0" r="1" gradientUnits="userSpaceOnUse" gradientTransform="translate(210.218 85.6133) scale(19.9536 25.6621)">
<stop stop-color="#F7F7F7"/>
<stop offset="0.01" stop-color="#C9C9C9"/>
<stop offset="0.03" stop-color="#9E9E9E"/>
<stop offset="0.04" stop-color="#787878"/>
<stop offset="0.06" stop-color="#575757"/>
<stop offset="0.08" stop-color="#3C3C3C"/>
<stop offset="0.1" stop-color="#262626"/>
<stop offset="0.12" stop-color="#151515"/>
<stop offset="0.15" stop-color="#090909"/>
<stop offset="0.2" stop-color="#020202"/>
<stop offset="0.31"/>
</radialGradient>
<radialGradient id="paint21_radial_3_2461" cx="0" cy="0" r="1" gradientUnits="userSpaceOnUse" gradientTransform="translate(1280.04 71.001) scale(12.7782 16.4339)">
<stop stop-color="#F7F7F7"/>
<stop offset="0.01" stop-color="#C9C9C9"/>
<stop offset="0.03" stop-color="#9E9E9E"/>
<stop offset="0.04" stop-color="#787878"/>
<stop offset="0.06" stop-color="#575757"/>
<stop offset="0.08" stop-color="#3C3C3C"/>
<stop offset="0.1" stop-color="#262626"/>
<stop offset="0.12" stop-color="#151515"/>
<stop offset="0.15" stop-color="#090909"/>
<stop offset="0.2" stop-color="#020202"/>
<stop offset="0.31"/>
</radialGradient>
<radialGradient id="paint22_radial_3_2461" cx="0" cy="0" r="1" gradientUnits="userSpaceOnUse" gradientTransform="translate(455.404 171.001) scale(12.7782 16.4339)">
<stop stop-color="#F7F7F7"/>
<stop offset="0.01" stop-color="#C9C9C9"/>
<stop offset="0.03" stop-color="#9E9E9E"/>
<stop offset="0.04" stop-color="#787878"/>
<stop offset="0.06" stop-color="#575757"/>
<stop offset="0.08" stop-color="#3C3C3C"/>
<stop offset="0.1" stop-color="#262626"/>
<stop offset="0.12" stop-color="#151515"/>
<stop offset="0.15" stop-color="#090909"/>
<stop offset="0.2" stop-color="#020202"/>
<stop offset="0.31"/>
</radialGradient>
<radialGradient id="paint23_radial_3_2461" cx="0" cy="0" r="1" gradientUnits="userSpaceOnUse" gradientTransform="translate(435.404 9.001) scale(12.7782 16.4339)">
<stop stop-color="#F7F7F7"/>
<stop offset="0.01" stop-color="#C9C9C9"/>
<stop offset="0.03" stop-color="#9E9E9E"/>
<stop offset="0.04" stop-color="#787878"/>
<stop offset="0.06" stop-color="#575757"/>
<stop offset="0.08" stop-color="#3C3C3C"/>
<stop offset="0.1" stop-color="#262626"/>
<stop offset="0.12" stop-color="#151515"/>
<stop offset="0.15" stop-color="#090909"/>
<stop offset="0.2" stop-color="#020202"/>
<stop offset="0.31"/>
</radialGradient>
<radialGradient id="paint24_radial_3_2461" cx="0" cy="0" r="1" gradientUnits="userSpaceOnUse" gradientTransform="translate(1072.2 83.517) scale(10.1242 13.0207)">
<stop stop-color="#F7F7F7"/>
<stop offset="0.01" stop-color="#C9C9C9"/>
<stop offset="0.03" stop-color="#9E9E9E"/>
<stop offset="0.04" stop-color="#787878"/>
<stop offset="0.06" stop-color="#575757"/>
<stop offset="0.08" stop-color="#3C3C3C"/>
<stop offset="0.1" stop-color="#262626"/>
<stop offset="0.12" stop-color="#151515"/>
<stop offset="0.15" stop-color="#090909"/>
<stop offset="0.2" stop-color="#020202"/>
<stop offset="0.31"/>
</radialGradient>
<clipPath id="clip0_3_2461">
<path d="M0 0H1824V400H0V0Z" fill="white"/>
</clipPath>
<clipPath id="clip1_3_2461">
<rect width="784" height="156" fill="white" transform="translate(-16 84)"/>
</clipPath>
<clipPath id="clip2_3_2461">
<rect width="722" height="156" fill="white" transform="matrix(-1 0 0 1 1824 84)"/>
</clipPath>
</defs>
</svg>
